<mxfile host="Electron" modified="2024-02-06T18:48:02.901Z" agent="Mozilla/5.0 (Windows NT 10.0; Win64; x64) AppleWebKit/537.36 (KHTML, like Gecko) draw.io/21.6.1 Chrome/112.0.5615.204 Electron/24.6.1 Safari/537.36" etag="C2eA0QsK3mQm4AvQhRVX" version="21.6.1" type="device">
  <diagram name="Page-1" id="doxH44jnlbFDxVBsaJ2t">
    <mxGraphModel dx="1500" dy="887" grid="1" gridSize="10" guides="1" tooltips="1" connect="1" arrows="1" fold="1" page="1" pageScale="1" pageWidth="850" pageHeight="1100" math="0" shadow="0">
      <root>
        <mxCell id="0" />
        <mxCell id="1" parent="0" />
        <mxCell id="Ofylcr-PgnQvNZqJ4ggt-1" value="v1.0" style="shape=image;verticalLabelPosition=bottom;labelBackgroundColor=default;verticalAlign=top;aspect=fixed;imageAspect=0;image=data:image/png,iVBORw0KGgoAAAANSUhEUgAAANQAAABsCAYAAAASR5wAAAAAAXNSR0IArs4c6QAAAARnQU1BAACxjwv8YQUAAAAJcEhZcwAAEnQAABJ0Ad5mH3gAAA89SURBVHhe7Z1PbxvHFcCfhCCyU8CxDwZan8kcaF2aAk678hcgfbCAGESdtFV7oZxDTB0qNA0Uu2mE2IAvZFy0FXMoiMaGTcCBLyI/gZgAMZoLw4NIX+PcnPZkG5DYN3+WnN2d2dmlhpRtvp89Ind3ZnZmdt+8N29JvrkBAgRBOGFevhIE4QASKIJwiNbku3H9U3j842O5ZebE8RPw7u9+D6dOnZJ7CGK20QrUhx+sw8effCq3zFz96EM4ceI4vPvbP5BQEQRyYJPv1xd/A7f+/S/4/vvv5R6CmF0OLFA//dkpEiqCkDhxSpBQEYTgQAJ1/Phxvo5i6R9//xs8fvwjfP75P+VRgphBmFMizJ//9MfBs2fPxkqs7CzQLMEAoDRoyu1Jws7lVXpya7rnDtIbVDwYlCwnFu2TyatgqfEJ9/15h55DJaG1CnNLVejLTUZ+a4CT0Rbk5fY0SXxuTbvHpbU6B3NzWVhryx0G+tUlKHQqgCKAbexBBdYgu9qSRydE2n46HJcwJFCEHbwBC7USNAdNKMldelpwAyWutFGGDN/OQLleAa+2CdVJ3L3PIYcjUP0qLM2xGU8mZbbgM2FoRmOz3jBPTNlYEpTj51HysGbw9hRqAG2cadl+2Ta2fyl0l4TLB/vRh+oSq1O8ijxLY91okXOzGXd4XlGnqd06rGOe30qmEfu70EGRW1YzZt6ARWhDtye3Ffx+BMbNcD1NeXT9FHlXUbx95JjjsTTjMg6HIlD97S4Ue8wkiJoF+WWcAzu7yqD2YbsxmvXiysZhK8cuQnZtEWdhmadXgRzu5+YVGvK4FhBmzJb+toqUZ+foFCIXrFZYAaiLPM1SG9ZWEk4IJthEUegALjPEeZtFvjtpuxm2MU9MrwttLwdZuSnIQs6TbzW017KwAvXRmGmuZ1weXT8z5TpUvBpsykmnX13BEngcj6UZl3E4FIHKlLegPLxSaBZsKBc0vwyldgO2/avb34ZGezTrxZaNIb6cNFWayiycKUM58Viz8oA3tTqL++bOfWWmZNexPmxHfh2Pt7ugmbxTsghv+H3LY7uH/UyIZcxd0Nk1XKFSE3aGDTaYiEnyBBB5YO0Gjr28NvWUk8OYHNoaKqDCmQoekodlnLkb8ur2txvQLi0HzA1z2XiM5Vr3oRY2VdLAyys3tQ83dzqg3kuLkUzB46nJnIMizsYF7FMCRW3APuYHJdpvgZcL6jMxZkGS5ImAE+JGiY1LAWqljfSTzJgcgkC1YBUvfrZRlJ4gqYIVmAnSbmyj9pCmx/BOt5fVM265FwGcjXewP2iidgpsslDXDskxj3lKIhq3B12LZ3BSZKWtGRHICTJ9gZIL1+bOSAX3dzvyncQ3QVoh0yNJWR22ctkceAfRFKby/LwazTUJcEbeYesLZe2QCtOYp4HVER4HnaNCoR32Vmi0fZI8EXBtucLWtDjR4EJ1al7GQzL5lEHnHQ9PYdIE2Wyg8bseMj1sZU3ElOPmQRvWssrsjnmq6lQft9bRlceZvrrCjPdw+x3TWo2YegHzKvEaLW7MY8BxWhp6K0UdI0dLaAwCeSW1gtJ+tCTQFPfC50+SJ9BP5bx4bfhyKuz8cbJ21YDmT4RJf1KiV/GCT9KbpegTdbYPvEH4IXmishqSlEMrcJQncG7xCQG+X35MgOUNP8EPnANT8LjmUwa9ysDT9DFM+FyBbV5H/Dn5MdvHGxiGMR/RHKChbO1DYBzVzKG8oh/NURs17UySJ9xPfv7AtRXtHo1NynFJwYG+D6WDfa7v0+s35BZBmGHPhDZzPcWD9+JzaF4+9wjHw9CLp6TxvV/TYhptf5HH58XhQF+B18G+Fr/+wYdyiyDMvIwain5GjCAc8hKZfARx+JBAEYRDSKAIwiEkUAThEBIognAICRRBOIQEiiAcQgJFEA4hgSIIh5BAEYRDSKAIwiEkUAThEBIognAICRRBOIQEiiAcQgJFEA4hgSIIh5BAEYRDSKAIwiEkUAThEBIognCI8VePbt++zX9Uf39/X/y4vvoej6v7T548Ccvnz8P8PMknMdsYBeqLW7fgnYsXufCIPypCqObn5uDu3btw9uxZ+ObBAxIqYuYx3v0DpoHwlWkilvbCaQ/3S1k8evQovHXmDNy79yXfJohZxSxQvuLSaKfwvnq9Dnfu3IFHPzySewhiNokVqL29PZQd8U9IkZSkOfyPiWmuty9cgPcvX+aJbRPELGMUKN+ca3/9lTX993//43n9MkRaRJRy24/28wjm/o/8J41+T0wVq8l3Onfamn7y2ms8LxYSr88jrVV3N6HDuoSQZMEWN47FBy50ZORyQ7R04vAxayhpvi0svBpJrx87FkivvPIKz7u/TxoqFSiYhVoJmoMmxEf8lVHqN/yQpkkioROHgVGg/OXSf779NpKePH0iDoYweOCj8NCQevOFz9ihmZdHb/fzxJQ1wetkUd/bOKuzMkr9gcjw4XCVTBOFjsXVFcbal/wWjtmWPfymLk4tj4TehnD4WZ9gvxRz0tSnuHYSibFqqDd//mYkHVk4wo+F2R8kc0r0t7tQ7DHTJWq+sGjk0NlVLqSMSi5n57iyJvJbmLeJ9XrSZNoSdya7aYKR4RdHcXKZ4BY6UPHP1SzyMqa6dNj6kpheF9peDoKxzLMgg5xH4P1iAZv9fvUqkBMH9H1y1U7CvoYSqiqYmIZSk88gocmXKW/BKMYWmi8bygX1o5H7V7cfjEoeWzYVzIwCqNSVmya/zqOo3x/KpxJpPF9WzpsQS19c0ImEnpfmYVPRfBls+3BD06cptHNWMGsoqW10Jl84+V6+kRDaCZgkzIQaIqORy6vb325Au7QcMIvMZVPAQ/OzyO2yHp4U50DmHBRRuAq436IAY7D35aAEIr4zeL8MwmDs0+TbOStYNZTO5Asn38uXTKBErNegqYVaRoGZIO3GNmodaXoM7w572XQwh4CsR0nCikPtt4PbaC51CkzYpCmYEnNfUtLuQnC51IOuxTMYxdwnZ+2ccaxOiado0pnSkYUFnnwvH7sZrcgFdnNnZGr1dzvyncQ3QVoh0yNJ2aRkc+BhbRGLKQyaSztsrYYz++Y4LjVTX9LA6gi3VeeoYCTpl65PLtpJ2E2+77pdbeo/fMiPqyR1SqDlP7rguFBeiTyEkSbIZgMXOesh08NWNgZ1lsebagPPMXRCcPpQXZWerdZqxNQLmFcRjWEiri8xcG+m73UUdayt+F43bOcKWwDK+tS8un7h8SrbiO3TmO0kgqBW0fLZzZuDp8+epUp/+esnsnQ8vYrHVJlIXmXQa5bEqzzOYfvAG1QCOxOW1dIbVDxZroSGngQtxlF9mDz/hL3KwNPt5+jrMmLoy4jmAA3XQaAqfv5gmUBb1cy2vP6x2D4h1nYSNoxf36jevAnvXbokt5Jx7dp1uHrlI7lFELOHUaAq1c+4Ccdc4dyUw1wsK/u8Hv9qB3vFfOx51YDlww32/uOrV0QFU4c5LAqg8/nhZC4dDZPgsM5LPI8YBYogiPSYvXwEQaSGBIogHEICRRAOIYEiCIeQQBGEQ0igCMIhJFAE4RASKIJwCAkUQTiEBIogHEICRRAOIYEiCIeQQBGEQ0igCMIhJFAE4RASKIJwCAkUQTiEBIogHEICRRAOIYEiCIeQQBGEQ0igCMIhxp8Ru337tvgdPv83+NT3eFzdf/LkSVg+fx7m50k+idnGKFBf3LoF71y8yIVH/FERQjU/Nwd3796Fs2fPwjcPHpBQETOP8e7nvw6Lr0wTsbQXTnu4X8ri0aNH4a0zZ+DevS/5NkHMKmaB8hWXRjuF99Xrdbhz5w48+uGR3EMQs0msQO3t7aHsiH9CiqQkzeF/TExzvX3hArx/+TJPbJsgZhmjQPnmXPvrr6zJDwnql3mZ4RHTx4xmmJ4+VJfsIUlFm2SiyO2HitXkO507bU1+SFAsJF6fR1qrTm42HgV+oASEnhBCSJSYvwZYvOFCR0akTxgVn5gcZg0lzbeFhVcj6fVjxwLJDwm6nzAKPGEBhb9QY/F/mxAfQVhGfN/wQ6RmoFyvgFfblJEPiWljFCh/uaSL+v7k6RNxMITBAx+Fh7DUmyl8Zg7NsDzqu58npqwJXieLFt/G2ZuV4fX75pQIhD004yz1s7qWhnerX4d4FWX8MJ5mrH3MbyXTgro4u5k3YBHa0DXEKw1E0Mc0bAbT4MP9og/WdhIRrBpKF/X9yMIRfixM0hi7/e0uFHvMRImaKSwaOXR2lQsmo5LLWTiurAluprFo8Z40jZQoaJ3N+5Dj9YkbeJz6a4UVgLoo0wzEwtVj62Niel1oeznIyk1BFnKefBuCCUN2bXEU+b5XgZw4AEuFDlT8fjeLPL+zds4Q1jWUUFXBxDSUmnxYtMMkZMpbUB5eETRTNpQL50cj969iPxiVPLbsOBTXlfrGq9+r1Idl8utoctkCWlv66IJOJAy8NA+biubLlKE83FiEUfxq3M/eT6GdLxtmDSW1jc7kCyffyzcSQjsB04OZY0NkNHJ5FfvbDWiXlgPmj7lsegKR3SVp64/WoUSq12Lv40GJtKl1H2ph89Ancw6KXg0K2N+gMp58O182rBpKZ/KFk+/lSyZQYs2SbRSlZ4qZGKgFFJip0W5so1aQJsbwLrCXPRiTrn+EuY8piWjDHnQtnsEoqIl3sK9oAnYKbCIZPRZw1s4ZweqUeIomnSkdWVjgyffyJRIouZBu7ozs8P5uR76T+KZGK2RiJCl7ECZdv4qpj2lgdYS1oc5RwcjmwAvnDYMm4A5bN6K22vQ9Ky7aOUNYTb7vul1t6j98yI+rJHVKBEwiXBCvRB62SFNjswFQWQ+ZGLayMdjWNpwD1J+KuD7GwL2QvidR1DFygvShurI2qk/Ni8KywfJmlYfSeLzKNlqrkYfHI5NxzHbOKFaTz/vlr7TpF2jqhUn0HAovbL0CeGHlGoU5yDRmFTc18F4unlPWAgnLasmv85mXrRPCruAhB6l/DLR9TAnzYDYX5eMA9iB4sQk7qpdFgectyTFgKYtCwlyEqL2EqSfqaBR7oDhCnbRzVjB+faN68ya8d+mS3ErGtWvX4eqVj+QWQcweRoGqVD/jJhxzhXNTDnOxrOzzevyrHewV87HnVQOWDzfY+4+vXhEVTB3mUCiAzidXag4CM+50eN7aQ0wDo0ARBJEes5ePIIjUkEARhENIoAjCGQD/B8Gift67Rq6cAAAAAElFTkSuQmCC;fontFamily=Times New Roman;fontSize=20;fontStyle=0;horizontal=1;fontColor=default;" vertex="1" parent="1">
          <mxGeometry x="90" y="51" width="212" height="108" as="geometry" />
        </mxCell>
        <mxCell id="Ofylcr-PgnQvNZqJ4ggt-2" value="v2.1" style="shape=image;verticalLabelPosition=bottom;labelBackgroundColor=default;verticalAlign=top;aspect=fixed;imageAspect=0;image=data:image/png,iVBORw0KGgoAAAANSUhEUgAAAV4AAAF5CAYAAADXgkKUAAAAAXNSR0IArs4c6QAAAARnQU1BAACxjwv8YQUAAAAJcEhZcwAAEnQAABJ0Ad5mH3gAAD1oSURBVHhe7d3tjxvXfS/wHxXVkmzAcYAobZ1cNC+WqkvvGzuFXZN61dRBSeXG29hY1EmTTd8MnRfxsuhVb26wsZtmESlx7r2klbReurftJpFgE3CwqE2yf0CWNmAjfrPZF0v6ReLUDpAXqRUgluTszv2dhyFnhmceOFwerbTfj320nIdz5szTj+ecGa1yLiMAALDmiP4JAACWIPACAFiGwAsAYBkCLwCAZQi8AACWIfACAFiGwAsAYBkCLwCAZQi8AACWIfACAFiGwAsAYBkCLwCAZZl+Sc5T579Bv/qvX+mpaB+44wP02c9/ge688049BwAAMgXer3z5LH3t69/QU9Ge/OpX6AMfuIM++7m/RvAFANBmPtTwl4/+FV38/r/SW2+9pecAABxuMw+8v/f7dyL4AgD4WHm4huALADAy08B7xx13yHFekf7pH79Dv/rVf9Gzzz6jlwIAHE4zDbx/87d/Jx/C+dPVd9/VS29u3WqOcrkqdfX0LIltlRoDPWV321K3ytsT29SpmmbLA2qUcpRq1RjhfQe4EVgZarjpicBTanAoGSmvueS6a1TW0zal3rah3pPjALpRoL4rtilSh5xmJTYYqi+GPNV6esasTbqf+3JcAKIh8MKU5mh5bZn/9JTpbL1IvVbbHLg4qFWaDnVEgNazAA6bgxl4Bw0q+buuvtaHbC2F+qeDRmm0TkzeWCnyye341hHVkPWpNIl6NcqL+bpupi5wOH9wP7yut/qp1ilRll702LZFC264XVVmVL1NEo95yNypef3JoLyWuifg7UfguEVsM2od036qdf1DMfqY87JJjgtAVgcy8A7a27TY97qufaoT3wT6BigvcDtpa8d38w2o3eqRs6JaXXF54yTlEzdrvjbPLTW9Tr9OBZ4vu/UdrlOxrrrba+aQMpZfbGOrMnZjNytLROtqnY7To9pSyi+OKOILpbJFdW/fOotydtp6C0nHPKy7wYFr/pRx2aR6tTwt0fromBnOZ9w6pv2cW16nerFJq/rLadBY4hy8nJdNclwAsjqQgXdueY2Wh3ctd2VXfDd+eYGcXovaXhQYtKnVc2hB3x+xeWPE5+vSUzUONB1fS21umZZT35MiP3Hw87f0eBvrdSo2NwIPwYr19WE9ymd5eW+b+mpyCvN0ytu3Mtd7uJ8pJRxzP/EFI4cS9itgOR3aHFbYO2arwZ5AmnUC1DpUe4qPvT436+YvEYBZOLBjvIGuo+j6DZVpgVuCLR0FBu0W9ZyFQNc1Om+8yHzdDWqSOdCkIvP7gp9n7hTP3aIdX4CYH1spuHxic2dokVt3Fd6nFA3/CMnHXBDddNWq37+HisVCXn/S5DELSrPOGP7iXHHEcalQ01mZ/MsIYAoHMPB2qcpBIt9aHD0pF10/H9H1VQ9vdJd3GBGT85plzXcj4NbdJu9Pv05bFfGlku01s+hjLqgx0gp1+NjtX9CdtXyhKH+OBW6AGTt4gXeww2087qpujrp+g50t/Unzur7dUJc3TV6TpHz5AhWnaXlG5ZfbNbSEZ4FbeJti/NM3tjmRqGPOutU81eY56M5gPLS3HRpoMfQe0qwzZtCgJdE65y8kqi1leogJkNUBHWrwBSl5g4Rf+NRd39UWUf1sqIWVlDdKTD7ZLe1RLe9rLfI6DX/TMW4s1pRftBKXxOBiuP77rFsdG2IIDGekHkOOOOZ8HFabRZ4VsRe8vJT27QzTus2Kr/7cM6k0qRg+ZmnWCeyn79jzuZHDveGHmPsytg5gdvACr3cj5PVYq3jIb+j2y64vx8bFM74gkjLvmBT5xNPujhwT1OvkOQB5PdTyWdmSlMsiBlJF/n59a5Q/l6fWYt/3UGhGuLWthhhG2xw2TFPU2894zCXxpeJtY5RSFJmoWO9QYdUrU4zH+h+kKYnrhPZTttCpTut6nbnlFW7N12jJi/gTHheASc309/GaiN/b8I3zT+kpgGjiYd1qwcKXE4BlB/athv2nHqD5W2ReOviNGht1v5GPD8CNZab/9I+J+OeAzn75K3oKIBpavHCzyhR4AQAgu0M01AAAcDAg8AIAWIbACwBgGQIvAIBlCLwAAJYh8AIAWIbACwBgGQIvAIBlCLwAAJYh8AIAWIbACwBgGQIvAIBlCLwAAJYh8AIAWIbACwBgGQIvAIBlCLwAAJYh8AIAWIbACwBgGQIvAIBlM/1XhsW/KPzZz3+B7rzzTj0HAAAyBd6vfPksfe3r39BT0Z786lfoAx+4gz77ub9G8AUA0GY+1PCXj/4VXfz+v9Jbb72l5wAAHG4zD7y/9/t3IvgCAPhYebiG4AsAMDLTwHvHHXfIcV6R/ukfv0O/+tV/0bPPPqOXAgAcTjMNvH/zt38nH8L509V339VLb27dao5yuSp19fQsiW2VGgM9ZXfbUrfK2xPb1KmaZssDapRylGpVbdAo6W1Y3LcpTHIerJ+zaaQ432p/dCo1+GybRF8D6fKnI8ry3x8HgZWhhpueuBBDF0d5zSXXXaOynrYp9bYN9Z4c3zwbBeq7YpsidchpVmIvdHVT5anW0zPSGDRoqUZU71+/4xprymtgbN19OTcTSL295PMtviArW3W9Tp/qVKN8KLrGXQMyf9Ohjt5GZ348/76b9HhPeX4QeGFKc7S8tsx/esp0tl6kXqttvij5glU3Fd+welZ683RqtCG4LpLOd5ee4mjqrHjr8PrrdSo2V2kYm2OvgQG1W5y/M/oSKp8V+TdujN5ASgcz8HLrpuR1M0JdDflNGfr2k11Qb52YvLFS5Bt1dVUS1ZD1qTSJevytLObrupm6N+H8wf3wul3qp1qnNLpYJzC2bfHtPNyuKjOq3iaJxzxk7tS8/mRQXgu27FKQ28rXqEdNqoTqmu6Ydqkqlyd05Wd4DSQdw7F1Q+XF50937QTrPlpu2t4kAud7sENbHE4X/Cd47hR/ZfZou6+nM1wDUbzjFti3iOsyah3T/qt1/deLPrbeuZjieEniL1BM6n/9z//hXrt2LVMSeZP0647LXUqt7/IXqstfgWqy47hUrPNcj1ruLY7NGyMpX79edIkcdzinX3fr3sRYncQscoujAsfzj21DT1NxWA9RRrhck/C2AtNcz6KvTLfD9R5+Hq+3UcIxD5P1TjzmHZdbO5FljJH74T9+Yla6Y1os+s9ttJleAwnHMHwOx9aPza/rGnPtyLqHy/Pvi6H+aQXOt7Gc4L6ORFwDobrFXU9yGZcxOnbj5y3NOuP1Vut4eYzHL+PxEg5k4B0T2ElxsnyBxHBDBmQ9QGPbjAkShm2Ikz060aE6ewJ1D55oKWnftOC2QtNxZaQ+NumP+XgwjJJwTMPGtpnxmE5iltdAaH/C53C8vLj8SdeO6VipPMP9SX0tBI2db2M5Uech+piqclXAjAq6gjhuY8vlvo/2N806xnoPj6Hh+GU8Xp4DO8Yb6BaIZv1QmRacHrXaqqMwaLeo5ywEui3ReeNF5utucCc31H2ahMxvGJ+UXbAt2vH1i+bHVgoun9jcGVosqi56lh6RknzMBdEFy9fmqWPj4ddUxzTazK6BlMcwWnL+yGtH1r1HtbzeL5kmfLhpMOn5TnceVJc+v70iH6yJ1C+scn2jh4mKhbz+pMlrICjNOmPmlmnFEfdOhZrOCi2nv4wSHcDAq8bj8q3F0ZNT/sryKy84ejBfD8QP74bkvGZZ890I5mh5k/enX6etirjhsr2yFH3MBXWzVKjDx85C0J2J2V8D8ccw2XT5R28J+NNappOVcL572+QN5yp92k4b5LtP8RcC19VXsbnldapz42E1PGhtQb5QlD/HAveUDl7g1YPznc3Rk9PBzpb+pJUXyOm1qN1tU4tP0vD6S5PXJClfvkDFUCtqIlH55XYtPannb+9N8WpP1gs46pizbpVbT/N8E2a7i7PZ72M662tAiDmGqWTNvx9194k936KO4W3pYzvx/qbUGz610wy9oTTrjJGvMHKLnhstVFvK9KA7ygEdavCdOLnz4a9L3e1abRHVz4a+cZPyRonJJ7scoqvmay3yOg1/03HsW97HlF+0GpbEi6nh+u+zbnVsiCHQ5Yurd0DEMefjsNos8qyIveDlpYxvZ8SayTGd4TUgxV23BmPljfJPNEwRdayqoaf/aa6FpPOt61hb8sqe8JzIwM3de99FO2gscSu4SItn+Lo1XU/Niu8a555LpUnF8PbSrBPYf1+9+fity9ib4XhF4e7GxGb/VoNvYF0MYJsGssW8sQcGKfMapMknB+m9dQLbVg8P5Hw9iC/WDT9MCGyDU3B56GGHEH4AECG8rcC0LCN+m3JZzAOMIdMxD5XvT7LIyH2IfrBiNHzQETTxMY1h4xowHkM2vm7EuTEez3TXTrDuGa+FpPOtBbYVWV7UNaDmj8r27Udov9Rx64zqLlKowDTrhPdf1j9w7lWdRscs5fGKMNPfx2sifm/DN84/pacAYCLinezVAvV9QyKHmXjAt1ro0+Z+Pvmy4MC+1bD/1MOT0VPdUcr+tN8WG3W/3sfnMOzjtLj7u8pd5MUzMw66N/pxOvhm+k//mIh/Dujsl7+ipwAgDdGyk2+3OZYfYh5wN2qLN1PgBQCA7A7RUAMAwMGAwAsAYBkCLwCAZQi8AACWIfACAFiGwAsAYBkCLwCAZQi8AACWIfACAFiGwAsAYBkCLwCAZQi8AACWIfACAFiGwAsAYBkCLwCAZQi8AACWIfACAFiGwAsAYBkCLwCAZQi8AACWIfACAFiW+V8ZvnTpEomse5zcPU7u3mhaz9vT844fP07333c/3XXXH+rcAACHV+bAe/HiRfrTj3+cfvdDH5LTw0K8Dzmid3/zG3rxxRfpgQceoB/9aJM+9scfoz+66y69AgDA4ZR5qEG0bLk5S7t7e7S7K9LuMP1W//Ri+m233UanT5fo1VdfpV/+8pdyHgDAYZW5xfu9732fHnzwz+jll1/Wc8Y9+OCD9NJLL9Fbb70lp3/nllvo03/xafrIRz4spwEADqPMgXd9fZ0+8YlP0Ac/eJJcb3xBNILVJ6YmvOmj73sffee736VHHhaB9yN6LgDA4ZN5qEHEa5FefPHf6aUXX1TppRepPUwvUbv9EnV0GuaRnw6ebjVHuVyVunp6GqKsUmOgp7IZNEqUq05Xm2nK2M/jAVq3ysdUHFedUp2bATVKOZryUoADZqoxXhFEP/nJ/z5MZ4bpk3TmzCep4qXKGZlHNq4PaOQtr4kvkjUq6+lDRQSEUoNv8ZHrejwM9bnxcQDdKFBfN1hct0NOsxL7Ba2+/PJU6+kZUSY9Xjfl8b2xTNXiFUFUtHK9FNXa7XTaMo94vezARl6AmZqj5bVl/tNTprP1IvVabXMA5OBYaTrUEQFaz4KbCAfQTJ599p/dN3/+c/fK1Wu+dFWlK1fdd7307hX3N5zee++37re+/W33Zz/7mS4hRr/uFlWEVqlYd7mlIHUcnnY6ekrp14ujdWLyxhHlFuvemn2X7wnX6aifqqyiO1ysye36tuVVK1hWx3XCeWUdHV4yIvfLK4vr3BFlm/ZzuL3x+qQpIyyQRyS9fnAfvOmO73jo/Q0c7+A+CbF17jhjy6LqE9wOp9B5zVI/bx8DdQxfL4Y6RpF1Dx3vwLUZJsqOWjYkrp/RtRVmOl5qf/z7qq9jXhZ5fMGqKYYauPXKp27UytUtXUNrt6tbvPIvWshP8QbtbVrse12yPtWpRnk9yFVe4Mtwa8fXShhQu9UjZ0W1JuLyTqpZWSJaV2V1nB7VlkbdMzF+mq/Nc4tEb6tfp4JeNinRpaxs1Ufd0JVtqoT6l3J7rcXROp15quVHY7BpyjCRQwp8N3IAUHnXogcXerXV4fHgm5uPD3eF5SES8/hYF5tU8R3r2DoPGlSqbBEHMr1sUeaJqk+a8zpp/YReLU9LtG4uN6KOUZKuzbDuRpNo/pRxWVqm4zW3vC73dVUPYwwaS7xXvJyXTXK+YYb4gsrkmbU1980335StWy8NW7ki6Zaul6699557/pvfcn/605/qEiYQaBmEWpCG1mNAqlaFajmEW7z+Fl9wO8mtkPQtXsNyJsoYtUZM63itcvE5TRkxDMcouA+msgzHIO48Sb46x523NOcstM7k9TPlYbJeut5J19aY0D7H5B9vlUYx7EeY6XgNt204D2mOL8zUdG818E/RuvXSsJUrkm7pekmQf+kiJflE3nv6W+GWwVCZFrj12Wrrb/N2i3rOQuAhUHTeycyfCrdFtmhHbLa7QU1yaGE/GguDHS51nsKbyhe4g+yR2+MWd17vk0y+hy5pytgHxUJef/IUaWyWJ6nOc2doUbRAeX7aDknSeZ2oftpYnrlTfCS1ieuYfG0KoneiekszfHg5t0wrjqh7hZrOCi1P06yGfZc98Mrfz0CjNxfOnJFvL5RD6c/LFZlkHvG7G+SnOF2q8oUe7KLyd76P6NKphxK6KzeMgMl5D5z+NoenNMSDFr1PviR7iqnLsC2mzuJh0yZP9+u0JYYEYl9du17ndZI6KtHXpqBeDatQh/dh9m+MeF+8419IcL1N9ToZh1JfK7c91soV6T+6HZkEEawTI69svfENuzkaFxvsbOlPWnmBnF6L2t02tXq+lmeavPshX+C2lG79ZuEPlBFl9bd9oTRpe2nKsC3tMeKW2aYef/XGJMfM8Lz2tvv6kyZb6qHeQ5o6eqKuTdatcot/noOujXHVQYOWRKuavzSotkRTvlYO+2yKoQb1cC3cwpVJt3L9SfCCdTLfDSsvoHAA0V261RZR/Wyo5ZCUdx/IbpzoRvtaQLythrE5lKdCkdd9ylvIrTd/N9kry/fgTr1KpD8Lpu2J1lNV50lTRpLeNoVC0HSS6sz1C3ffA0M7Y/WZ0XltVnz1UOem6F1TSXU0irg2uc6rzSLPigi6vLyUK6ULkKZ1A8eLj/NSTW2fz8O6jL2+a0PY7/MNE5lqjDcQRL0uoEh6VljcsiHvQvHGBsVTaUO3Unbp+N5bPOO7EVLm3Q/i6XBHjqHpbeX5RjP26ER3Vb0sr8YnN2iBWyH+0dfymn6a7pW1sSCfyvuNbS+Xp1bhzLAFmKaMSOWz6om/yJd2wDWF2Dpzi1h13/X8xb4egmDh+szwvBbrHSqsevUQ46Ed2vQGROPqGMN4bUrii8grb5SmPuSh4yVb1nw1rOv9mFte4VZ4jZa8SD2j8w3pZf5dDU9fuECf+tRD9OEP36nnJPvGufO09LnP0Uc/+gd6DsD1Ix5yrRb6o0ALYEnmwFtvPD1s4Xq/8Fw9cPN+GTrPk78MXc1TaY++8PnPc+D9qC7FJvGAhls0esrP6XgPfG5Wh3nfo2ULvDiWML3MgRfgRocWL1wvCLwAAJZlfrgGAADZIPACAFiGwAsAYBkCLwCAZQi8AACWIfACAFiGwAsAYBkCLwCAZQi8AACWIfACAFiGwAsAYBkCLwCAZQi8AACWIfACAFiGwAsAYBkCLwCAZQi8AACWIfACAFiGwAsAYBkCLwCAZQi8AACWZf5Xhi9dukQi697envwZ+MzL/fNPnjxJCw89REeOIM4DAGQOvD+4eJE+8+ijMsiqP/xU8D2Sy9Hzzz9Pp0+fpldfew3BFwCAZY6CrmjR8k/RshVpN5x2eb6O6SdOnKD777uPXnjhh3IaAOAwyx54vYayobUbnre+vk7PPfccvf2Lt/UcAIDDa6rAu7u7yzFW/aeirY64Of6fk2gJP/zII/Slxx+XSUwDABx2mQOvN4zQe+XlxPTO5ctyXS8PzF63mqNSY6Cnshk0SpSrdvVUNtOUIfYhl6vSdDWAgG6Vj6k4rjqlOjcDapRyNOWlAD5TDzXcXbg7Md12661yXc6kfh5E4oIsNfgS2wf7WdZhYThm5TXxVswalfW0VTflOeQAulGgPt+H4v513Q45zUrsF7T68stTradnwL7I3uLVwwbHjt0ylt5/++2BdPToUbnu3h5avADXzxwtry3zn54yna0Xqddqm79g+Mun0nSoIwK0ngX7I3Pg9YZzf/z662PpytUramFI6jfXBg0q+btDvpaH/AYO9Xlkd9ZbJyZvFFlmpUnUq1Fe5PGVL8selleiQONAtIpCy+LKihK1DTXf39VWXb7o+kV1B7tUDdddHqdgN161bnTi49bX8/1ijwdLU0ZY1DET8/2tMTXdVcdAb0OuGjjn40MT+3YOE66tLPXz9jFQx/A1a6hjFFn30EUgy464D+ZOzetPBuW1iXockddi1DGeoJ43HQ6GmaytNd2r16657/z612NJzDel89/6ls4dr1933Dr3h5S+y1/KLjkdNdlxXCrWea5HLfcWx+aNM1auKKsYnCfWIceVpfXrbpGKo2116r7P42VFid2Grn9RFxxeV04P12Vcp7qe6DijfDzlOv66CrL+o7xi/fF6BI9dfF3TlRHJcMyC+6DL9+2H2n//NsfPd2ydJzyHSddWlvqpPP79DK0TV0eTsXqr8qJOgdx+1MIhcf1ElyFEXotR9Z+wnjebzIH3mWfWZDB959eXE5MXeM+d/6bOPaHASQoFkVAAGWO4gYzG1jMEK//FEbfdtNtM2oac9LYTXjf+ZggGLcN2AvU31UOVMbopk+qapowYhmMW3AdTWYZjEHetSPt4DkPrTF4/Ux4m66XrHVdHo9A+x+QfC5aRDPsRELM8cvvp63kzmuKtBjXGaxpqCCfvrQbenvyZRqDbIrp9Q2VacHrUaqsOyaDdop6zEOgOReedQHeDmtSjWl6XI5PvIcPcGVosNqnC80M9pvSStiHMLdOKI7ZToaazQsveAJ3M69DCfjx5GuzQFs3TqdHgn5QvFPUnllTXNGXsg2Ihrz95ijQ2yzODc5h0bU1UP20sz9wpPpLaxHVMvj8E0dXP1+apsx8PL+Ouxcj6p6vnzWrqtxruvefexOS91ZAu8IrxSL4oWoujp6/cLPArLzj6gcCA2q0eOcMznpx3MuLBgi7Hl9bk5uZoeZOn+3XaqogbMetrT3HbULzgNX5T75P+NoenNGLqmroM2/brHO73tZXW5NdZ9P0hqOcEFerwPth4YyS6/vH1vLlN/XDt6tUrken4sWMyeW81iIs1kWw58c2yOXr6OtjZ0p+08gI5vRa1u21q9XzftGnyppUvcFtli3aSRvq5Rbrp9qnO3+qrcU89TNJsY9CgJdEy4QuXakujBytp6xfFHygjyupv+0Jp0vbSlGFb2mOU5hzu57UV0tsOPYKULchQ72GS6yzq/mDdKrf45zno+r/Zp5XmOJvqH1PPm93UQw0/2d42psEbb8jlfl6eZL6TKANP+ObV3ZTVFlH9bOhbOylvjN726Cm87OKLbqq/hcGthap+6tqtjnX95v13ir+sKEnbEJ+Xamofed11GXv1MlNe3t9GqE5KngpFXvcpbyG33vzdZK8sr2yB9y/Qk06qa5oykqQ5ZpNIqvPE53CKaytOs+Krhzo3Re+6TqqjUcT9wXVebRZ5VkSE4+WlhLcmhvzrxl2LsfWPu49vctwKzeTpCxeGD83Spr//h6/r3PGGT4NFEg8iTA86xDzDw5xUeY3UQxeZz/eUQD788MrjNHzYIx8GGOZL5rKiRG1Dzg/UXT3EGHvgNMw7Oh5ifrBOKq9az3G5BR16mOGrs0hcb3ksQ/WPPB5SujLMxo9ZeB/M+xS6BgznO7LOE57DpGsrS/1Uns7YcRuKrWMM0/0RKsuf5Cbl8vF7Su1H6OGZYd3gcdbLkupvquchkPnXQjYuXKAvPvaYnkrn3Lnz9OQTX9VTACAecq0W+rQ5fGoKh0HmwFtvPC2HDtw9Vw0hcCmiKPH7GOSvjBQ/eT3xN9xcsR5PiM9fe/IJVYB14uFIhUw9X/4mDzzM2l/Xa7sHDY6DSbbAi2N5o8sceAFgemjxHk4IvAAAlmV/nQwAADJB4AUAsAyBFwDAMgReAADLEHgBACxD4AUAsAyBFwDAMgReAADLEHgBACxD4AUAsAyBFwDAMgReAADLEHgBACxD4AUAsAyBFwDAMgReAADLEHgBACxD4AUAsAyBFwDAMgReAADLEHgBACzL/K8MX7p0iUTWPU7uHid3bzSt5+3pecePH6f777uf7rrrD3VuAIDDK3PgvXjxIv3pxz9Ov/uhD8npYSHehxzRu7/5Db344ov0wAMP0I9+tEkf++OP0R/ddZdeAQDgcMo81CBattycpd29PdrdFWl3mH6rf3ox/bbbbqPTp0v06quv0i9/+Us5DwDgsMrc4v3e975PDz74Z/Tyyy/rOeMefPBBeumll+itt96S079zyy306b/4NH3kIx+W0wAAh1HmwLu+vk6f+MQn6IMfPEmuN74gGsHqE1MT3vTR972PvvPd79IjD4vA+xE9FwDg8MkceP/t3/5NBt5XXnlFz4n3qU89RBe+8x165JGH6b8h8KbTrVKu0tQTzOmQu1bWE1EG1CjlaXvFpcRVAeD6EIE3i//3L//i/vw//9O9evXaMF0ZpqvulStX3Xe99O4V9733fuv+7//zf92f/exNXcIB03FcKtbdvp6cyr6U1Xfrjr+Mjuvw6SrWo0vtOLKDIZPT0TNNJq3ffh4bAHAzP1zjvPIWf+mlF4epPUwvUbv9EnW81GnLPOL1MhUXINkcLa8t85+eMp2tF6nXanOb1oBbx5WmQx23QxygAeAgU/F3cs8++8/umz//ua+Vq1u6htbub3SL91vf/ja3eH+mS4jRr7tFFaFV8rW2ZKsu1Jzr14ujdWLyRvG3FGXylS/LHi4ruoEGp2gJhpbFlRWWuC9hqVqeqmUctVlT/dQ+OpzTw63tolo2yf4AQDpTvE7GrVe+FUetXN3SNbR2u7rFK/+ihfwUb9DepsW+/osYbp/qVKN8tSuXlRc4rGzt+Fp9A2q3euSsqNZhXN4o5TVelyMMBzXioDYcRx00SpRvLap5InXmqZavkixt0KBSZYs42OplizJPVFkmSfsS1t1oEs2fMi5Ly1S/ueV1qhebtNpQNRk0lvio8XJeNsn+AEBKHDQyeWZtzX3zzTdl69ZLw1auSLql66Vr773nnv/mt9yf/vSnuoQJBFp6okXna3nKFq6/tRaSdnxybL3QdiTVEpSNvrjtpt3mBPsy3iqNEt/ilUz1G27bsN+p9wcA0phqjFe0XkXr1kvDVq5IuqXrJUH+pYuURGszl8up5H+yT2VacHrUauvWWbtFPWeB545E551Ad4Oa1OMWri5HpjzVenr53Bla5FZihecnNKhjJO+L0K3mKF+bp467NrZs38wt04oj9qdCTWeFlqdpVgNArOyBV/5+BqLKmU/qdIYqlTNUDqU/L1dkknnE726Qn+J0qcrBLNjF5zacj+iiq4dMumu+4IWj5LyTEQ+rdDm+pHrbc7S8ydP9Om1VRFDWQxATit4XQbwalqMKdXi7Mwy6Wr5QlD+Lhbz8CQCzMd1fGeYwOmrltsdauSL9R7cjkyCCdWLkHezQlgh4m6NxzsHOlv6klRfI6bWo3W1Tq+fQMFalyZtWvkBFLm1nNABrxi3FTTGW7BsjnUjUvrBulVvY82ne3d0HgwYtiVY1f5FQbYmy7AoApDPFUIN6uBZu4cqkW7n+JHjBOpkv4MmA4PXvPbqLvtoiqp8NtQST8sbobVNff1RdbzHU4G/Jcgu02uA/Wbc6NsQwf8rXP/eXFStiX7juq80iz4oIuuLhXq6ULkCa1g3Uj/drqaa2z/u9LmOv3k9P6v0BgCRTjfEGgqjuhsukZ4XFLRvybnxvbHWJaN0wXCC76BxTF8/4gl3KvEbls7LVKsZsc94bFGvcopfjnrq8XJ5ahTOqNc0tYjXEoOcv9kd/U8xQVhzjvkjhMWaVso8pa6H6yZY11WldD+zOLa9wK7xGS16knnB/ACBe5r8y/PSFC/KvAX/4w3fqOcm+ce48LX3uc/TRj/6BngMAcPhkDrz1xtPDFq73C8/VAzfvl6HzPPnL0NU8lfboC5//PAfej+pSbBIP3ipkesfB6czy9xpcr+0CwEGVOfACAEA2mcd4AQAgGwReAADLEHgBACxD4AUAsAyBFwDAMgReAADLEHgBACxD4AUAsAyBFwDAMgReAADLEHgBACxD4AUAsAyBFwDAMgReAADLEHgBACxD4AUAsAyBFwDAMgReAADLEHgBACxD4AUAsAyBFwDAMgReAADLMv/z7pcuXSKRdW9vT/4MfObl/vknT56khYceoiNHEOcBADIH3h9cvEifefRRGWTVH34q+B7J5ej555+n06dP06uvvYbgCwDAMkdBV7Ro+ado2Yq0G067PF/H9BMnTtD9991HL7zwQzkNAHCYZQ+8XkPZ0NoNz1tfX6fnnnuO3v7F23oOAMDhNVXg3d3d5Rir/lPRVkfcHP/PSbSEH37kEfrS44/LJKYBAA67zIHXG0bovfJyYnrn8mW5rpfnZtat5vhLp0pdPX3QiPqVGgM9lc2gUaJcdbo9nKaMg36Mb0jdKh9TcVx1SnVuBtQo5WjKS+FQmnqo4e7C3YnptltvletyJvXzIBIXXqnBl9J0ymviTY41KutpmJLhvFzXY7xP18nBwgF0o0B9vj/Ffe26HXKaldgvaPXll6daT8+AiWRv8ephg2PHbhlL77/99kA6evSoXHdv7+Zv8QLceOZoeW2Z//SU6Wy9SL1W2/wFw18+laZDHRGg9SyYTObA6w3n/vj118fSlatX1MKQ1G+uDRpU8nd7fC0M+U0b6tvIbqu3TkzeKLLMSpOoV6O8yCPL97pRXarKsnTXNqH8YFfeK0P9VHlKlLanL/druK1RPjXf39XW5fuOSzBvVHdQ7FuoPnL/gt141brRife3r+f7RdXVk6aMMPN5CR9jb7rrO8Z6fwPnanxoIrbOga63WhZVn+B2OBmvicnq5+1joI7ha9lQxyiy7qGLQJYdLlObOzWvPxmU1ybqcURei1HHeIJ63qimbvHee8+9Y+n4seNyWdiem+7h2qC9TYt9r9vTpzrxha5PRnmBv2O3dnwnYUDtVo+cFfWNHZc3iuy6drjcYl11t9ZGl9TW6gYVZHnqQstSfrOyRLSu8nScHtWWki8icbHlW4uj7l9nnmp5dXPOLa9TvdikVX2nDRpLXAuuu663zFub5xaJztuvU0EumZy4ESpb+riItLJNlVD/Mq6uQpoyTOLOS1ivtjo8xn1urTUrfAPLwy7m8Xni41XxnafYOouAWNmiuneeO4syT1R90lwTk9ZP6NXytETr5nIj6hgl6b4J627wF8z8KeOySURei1HHeMJ63rB4pzN55pk19+q1a+47v76cmMR6Ip07/02de0Idx+WL3eWLXUy4DhVdPmFKv+4WyeG5EQJ5Y4yt13f5/nCLww1FCOXj+9KXx1BGUn2l0D5KqizHyzgsJ7yumPatFxKsn2E7gfqZ6qHKoOEGkuqapowYhvMX3AdTWYZjEHcNSb46x52jNNeT4ZqYrH6mPEzWS9c71XXkF9rnmPz8xcBd0zRlG/YjIGZ55PbT1/NGNsVbDar1ahpqCCfvrQbenvyZhvimHHZDRPduqEwL3GpstXVrr92inrMQ6PZE553c/Knx79lJyx8vY4t24pq83Q1qEreM83obMoUeZMwt04rDraRchZrOCi17m5B5HVqIbhymN9jhms5TuPr5QlF/Ykl1TVPGPigW8vqTp0hjszxJdZ47Q4uiBcrzEzozQ0nXxET108byzJ3iI6lNXMfk+0YQvRPVQt2Hh5dx12Jk/dPV80Y39VsNpqGGcPLeakgXeNWYarAbyN+bPqI7ogb+dTdkeGaT805n1uX7iYcXehu+5O9te8Fr/KbeJ/1tDk9pxNQ1dRm2xR3fOVre5GnuFm+JIQHD+PCIzWvCb5I6KtH3jaCeE1Sow/tg442R6PrH1/PmMPXDtatXr0Sm48eOyeS91SAuykSyhcQ3xeZoTGews6U/aeUFcnotanfb1Or5vlHT5J3GrMv35AvcHkpoFQ8atCRaJnzhUm1p9GAlTd44/kAZUVZ/2xdKk7aXpgzb0h4j7lVs6vFXbzx9zAyvid526BGkbEGGeg9p6uiJum9Yt8ot/nkOujHj6BNLc5xN9Y+p581i6qGGn2xvG9PgjTfkcr+0D9cCXXEZYMI3qe6OrLaI6mdD385JeWP0tlM8bZ+i/LTkMILoCvtbMdwiqXoP5fjzUk3tO6+7LmOvXmbKy/VsGJtDeSoUed2nvIXcevN3k72y/A8D5atE+rOQVNc0ZSRJdV4mkFRnrl+4+x4YLhqrz4yuiWbFVw91bore9Z5UR6OI+4brvNos8qyICMfLSwlvTQz51427FmPrH3d/3xymHmoo/skDxvSxe+6Vy/1SvcfLJ0sGkrweLxNPfg1dN9kd4et78YzvYkuZ16h8Vj1ZFvnCV4RnmvInJJ6gd+QYrt5WLk+twhnZqpKtE6rTuh7YnVte4RZCjZb0nTGWN88XsHE0QnT31MvyahsbtMAtaP/oa3lNP033ytpYkE/l/eLqqpYnlxEpzXnJILbO3FJT3V89f7E/GuIJ12eG10Sx3qHCqlcPMZbfoU1vMD+ujjGM940kAqRX3ihNe8gjr8WE+kfX8+aQ+ddCNi5coC8+9pieSufcufP05BNf1VMAEEU85Fot9EeBFm4qmQNvvfG0HDpwuRUrhxC4FFGU+H0M8ldGip+8nnjf1xXr8YT4/LUnn1AFWCcegnCrQU/5OZ3gQys7Dlp9rhccB5NsgRfH8kaROfACwOygxXtzQ+AFALAs++tkAACQCQIvAIBlCLwAAJYh8AIAWIbACwBgGQIvAIBlCLwAAJYh8AIAWIbACwBgGQIvAIBlCLwAAJYh8AIAWIbACwBgGQIvAIBlCLwAAJYh8AIAWIbACwBgGQIvAIBlCLwAAJYh8AIAWIbACwBgWeZ/ZfjSpUsksu7t7cmfgc+83D//5MmTtPDQQ3TkCOI8AEDmwPuDixfpM48+KoOs+sNPBd8juRw9//zzdPr0aXr1tdcQfAEAWOYo6IoWLf8ULVuRdsNpl+frmH7ixAm6/7776IUXfiinAQAOs+yB12soG1q74Xnr6+v03HPP0du/eFvPAQA4vKYKvLu7uxxj1X8q2uqIm+P/OYmW8MOPPEJfevxxmcQ0AMBhlznwesMIvVdeTkzvXL4s1/Xy3My61Rx/6VSpq6dnolvlbYjt6FRNs7UBNUo5SrUqAMzU1EMNdxfuTky33XqrXJczqZ8HkQhmpQaHp+mU18SbHGtU1tP7jwPoRoH6fCzFOXDdDjnNCpUa0TVXXwZ5qvX0DAC4rrK3ePWwwbFjt4yl999+eyAdPXpUrru3d/O3eGdvjpbXlvlPT5nO1ovUa7XNXxr8hVJpOtQRAVrPAoDrK3Pg9YZzf/z662PpytUramFI6jfXBg0q+bvSvpaobL2F+suDRmm0TkzeKLLMSpOoV6O8yCPL97rmXarKsvTwQUL5oqxR69MrQ/1UeUoU0ziVEvcxZO7UvP5kUF6bqAUut+Pbv2E1AsMbah8mrScAKFO3eO+9596xdPzYcbksbM9N93Bt0N6mxb7Xle5TnTgg6hu8vMDttq0d3409oHarR86KagXG5Y0ihwc6XG6xrrrwa6MwtbW6QQVZngpeWcpvVpaI1lWejtOj2lJ8YErax7DuBn9pzJ8yLpuECJr52jy3jvX+9etUUAuoVNmiurffnUW5/qT1BACNb6RMnnlmzb167Zr7zq8vJyaxnkjnzn9T555Qx3E5KLocFMWE61DR5SCg9OtukRyeGyGQN8bYen2Xe/BucbihCKF8HL99eQxlJNVXSr+P/XqRuxFJ5QmiTHKd6AMVvTxy+xOeCwCQpnirQbVeTUMN4eS91cDbkz/TCHR5xTDAUJkWuNXYaqt21qDdop6zEOhKR+ed3Pyp8bbbpOWPl7FFO3FN3hT7KIiuvmqh7sPDvO4GNcmhBVNBc2dosdikCu9vsHGfrp4AEDT1Ww2moYZw8t5qSBd41ZhqvrU4enIvhgF8RBdXPUzSXdthtEjOO51Zlz8SvY+CGjOuUIfrMMs3KDxztLzJ+9qv01ZFfOGMXpeLrycAmEz9cO3q1SuR6fixYzJ5bzWkCryDHW4POtTZHI0TDna29CetvEBOr0XtbptaPV8rLU3eacy6fL+ofWTdap5q8xx0fWPRU8sXqJjUEp9bpk0xrs2t31XvCWFMPQHAbOqhhp9sbxvT4I035HK/tA/XAl3xQYOWxl5A1V3c1RZR/WyoxZeUN0Zvm/r6Y7Qpyp9IxD7yNlebRZ4VEeHEg7AUb05I/nU5qK7w9mp531/+4OUNMdGtjv3Fi9HwSdy5AACTqYcain/ygDF97J575XK/VO/xcgBYrxMHAD2GKl4IMHTnZReXY97iGd/4acq8RuWzsiUnxjEj/ybYNOVnYNxHSQRIXQdfSni5IpF4u6Pj6GMgUp6DaZ4XcGtYDTGIlKfWYp/8je3oegKASeZfC9m4cIG++Nhjeiqdc+fO05NPfFVPAQAcTpkDb73xtBw6cLkVK4cQuBRRlPh9DPJXRoqfvJ5439cV6/GE+Py1J59QBVgnHoxVyPQOgtNxAy04Ow5afQDAlsyBFwAAssn+VgMAAGSCwAsAYBkCLwCAZQi8AACWIfACAFiGwAsAYBkCLwCAZQi8AACWIfACAFiGwAsAYBkCLwCAZQi8AACWIfACAFiGwAsAYBkCLwCAZQi8AACWIfACAFiGwAsAYBkCLwCAZQi8AACWIfACAFiGwAsAYFnmf9790qVLJLLu7e3Jn4HPvNw//+TJk7Tw0EN05AjiPABA5sD7g4sX6TOPPiqDrPrDTwXfI7kcPf/883T69Gl69bXXEHwBAFjmKOiKFi3/FC1bkXbDaZfn65h+4sQJuv++++iFF34opwEADrPsgddrKBtau+F56+vr9Nxzz9Hbv3hbzwEAOLymCry7u7scY9V/KtrqiJvj/zmJlvDDjzxCX3r8cZnENADAYZc58HrDCL1XXk5M71y+LNf18txsutUclRoDPWXffmx/0ChRrtrVU9lMU4bYh1yuStPVAAK6VT6m4rjqlOrcDKhRytGUlwIkmHqo4e7C3YnptltvletyJvUTDjcREEoNvsVHymviDZg1Kutpqwz1ufFxAN0oUJ/vOXGvum6HnGYl9gtaffnlqdbTM2Bmsrd49bDBsWO3jKX33357IB09elSuu7eHwAtgxxwtry3zn54yna0Xqddqm79g+Mun0nSoIwK0ngWzkznwesO5P3799bF05eoVtTAk9ZtrgwaV/F0kX2tEfiuH+kGyi+utE5M3yizKjCLLHZZVIq8Boub7u9qqy+evVzBvVHewS1VfuZKsf7Abr1o3OvH+9PV8v6i6etKUESbzVJpEvRrlRT69E2K+vzWmprvqGOhtyFUD52J8aCK2zoGut1oWVZ/gdjiFznmW+nn7GKhj+Foy1DGKrHvoIpBlR1yfc6fm9SeD8tpEPY7IazHqGE9Qz8Ng6hbvvffcO5aOHzsul4Xtuekerg3a27TY97pIfaoT3xT6xJUX+Pt4a8d3wgbUbvXIWVHf7nF5o8yiTBNxseVbi6PuX2eeanl1c84tr1O92KRVfacNGku8lTr119StIPPW5rlFovP261SQSyYnboTKFpftlbWyTZVQ/zKurkKaMkzkkEKHj3dR59X7Z9KrrRKtq/L73FprVvgGXhKzxDw+D3y8Kr7zEFtnERArW1T3zmNnUeaJqk+acz5p/YReLU9LtG4uN6KOUZKu27DuBn/BzJ8yLptE5LUYdYwnrOehwAcok2eeWXOvXrvmvvPry4lJrCfSufPf1Lkn1HFcvjFcvjHEhOtQ0eWTq/TrbpEcnhshkDfKdGXyfesWh5mjhLYh9V2+X13H29Bwu+F1xbRvvZDg9g3bCeyPqR6qDBpuIKmuacqIYTgn4WM4XpbhGMRdF5KvznHnNM01Yjjnk9XPlIfJeul6J113Y0L7HJOfvxi4u5mmbMN+BMQsj9x++noeFlO81aBar6ahhnDy3mrg7cmfaYhv1WGXRXQFh8q04PSo1dYtw3aLes5CoIsUnTfKLMoM6W5Qk3rcAtNlyBR6kDG3TCsOt5JyFWo6K7TsNQdkXocWohuH6Q12aIvm6VSoqZEvFPUnllTXNGXsg2Ihrz95ijQ2y5NU57kztChaoDw/bWcl6ZxPVD9tLM/cKT6S2sR1TL5uBdE7US3UfXh4GXctRtY/XT0Pk6nfajANNYST91ZDusArxij5Qgl0Gfk71kd0XdRDAt1lGV4FyXmjzKLMceLhhS7Dl/y9bS94jd/U+6S/zeEpjZi6pi7DtrjjO0fLmzzN3eItMSQQ++rafp7zSUxSRyX6uhXUc4IKdXgfbLwxEl3/+HoePlM/XLt69UpkOn7smEzeWw3iAk4kW1N8A22Oxn8GO1v6k1ZeIKfXona3Ta2e79s3Td4osyjTL1/g9tAW7YwGusYNGrQkWiZ84VJtafRgJU3eOP5AGVFWf9sXSpO2l6YM29IeI+5VbOrxV288fcx+nXOD3nboEaRsQYZ6D2nq6Im6blm3yi3+eQ66MePoE0tznE31j6nnYTT1UMNPtreNafDGG3K5X9qHa+Q/sTIYhW9o3XVZbRHVz4a+yZPyRplFmT5yGEF0hf2tGG6RVL0nu/x5qaa2zeuuy9irl5nycj0axuZQngpFXvcpbyG33vzdZK8sr2xBvkqkPwtJdU1TRpLedqq3IFJLqjPXL9x9n/dHu7H67MM5N2lWfPVQ56boXW9JdTSKuG65zqvNIs+KiHC8vJTw1sSQf924azG2/nH31yHErdBMnr5wYfjQLG36+3/4us4dTz0IkG1q9XDC9PBDzDM84EmVN0rGMsVDk+SHa4pYd1gWJy+fnB+op3qIMfbAaZh3VM/x7au8aj3H5RZ06GGGeug0LMvpqH0MPTGJqquSrgwzX169fngfzPsUOjeGcxtZZ3kMDPOl8fpMfs6T66fydMaO21BsHWOYrttQWf4kNymXj1/raj9CD88M6waPs16WVH9TPQ+pzL8WsnHhAn3xscf0VDrnzp2nJ5/4qp4COFzEQ67VQp82h09N4bDKHHjrjafl0IG756ohBC5FFCV+H4P8lZHiJ68n3vd1xXo8IT5/7cknVAHWiQcmFTL1hvnbPfCAKzsb27gR4DiYZAu8OJY3o8yBFwAmgxYveBB4AQAsy/46GQAAZILACwBgGQIvAIBlCLwAAJYh8AIAWIbACwBgGQIvAIBlCLwAAJYh8AIAWIbACwBgGQIvAIBlCLwAAJYh8AIAWIbACwBgGQIvAIBlCLwAAJYh8AIAWIbACwBgGQIvAIBlCLwAAJYh8AIAWJb5Xxm+dOkSiax7e3vyZ+AzL/fPP3nyJC089BAdOYI4DwCQOfD+4OJF+syjj8ogq/7wU8H3SC5Hzz//PJ0+fZpefe01BF8AAJY5CrqiRcs/RctWpN1w2uX5OqafOHGC7r/vPnrhhR/KaQCAwyx74PUayobWbnje+vo6Pffcc/T2L97WcwAADq+pAu/u7i7HWPWfirY64ub4f06iJfzwI4/Qlx5/XCYxDQBw2GUOvN4wQu+VlxPTO5cvy3W9PDebbjVHpcZAT2XUrfKXVW6Uql29IM6AGqUcpVoVAA6MqYca7i7cnZhuu/VWuS5nUj8hhAPoRoH6fHzEcXXdDjnNSmwwF8E+l8tTradnAMANI3uLVw8bHDt2y1h6/+23B9LRo0flunt7CLxmc7S8tsx/esp0tl6kXqvNIdmAW8eVpkMdEaD1LAC4cWQOvN5w7o9ff30sXbl6RS0MSf3m2qBBJX+3u9QYBiDZ0gv1rQeN0midmLxRZlFmWOI2QuZOzetPBuU1PpZrHJ7Tkdvx1X9YjcDwRolEA3vSegLA5KZu8d57z71j6fix43JZ2J6b7uHaoL1Ni32v292nOtUor4NBeYHbeFs7viAwoHarR86KajHG5Y0yizLDkrYR1t1oEs2fMi6bhAia+do8t451/ft1KqgFVKpsUd3br86iXH/SegJABnzTZfLMM2vu1WvX3Hd+fTkxifVEOnf+mzr3hDqOS8W621cTrkNFlwOG0q+7RXJ4boRA3ijTldlxyC0OM0dJv41+vchdg5jtD4kyyXWiKxq9PHL7Ex4LAJjYFG81qNaraaghnLy3Gnh78mcage5xhVt/Q2VacHrUaqs22aDdop6zEOh2R+eNMosyw5K3IYiuvmqhph9KiNTdoCY5tGAqaO4MLRabVOH9CTbe09UTALKb+q0G01BDOHlvNaQLvF2qcjDItxZHT/m5SeknusPqwZPuBg8jS3LeKLMoMyx6G4J6NaxCHd7GPgTdRHO0vMn70q/TVkV8oVR5T5X4egLAtKZ+uHb16pXIdPzYMZm8txpSBd7BDm1xK62zORpTHOxs6U9aeYGcXova3Ta1er4WXZq8UWZRZljUNli3mqfaPAfdtX0McvkCFbn2O6MB23Fzy7Qpxq259bvqvb4WU08AmN7UQw0/2d42psEbb8jlfmkfrpE/WAwatDT2sqruDq+2iOpnQ63DpLxRZlFmWMQ2uMzVZpFnRUQ48SBMv3WQyL8uB9UV3l4tP2rNiuUNMdGtjv3Fi/lT3ldL3LEAgGlNPdRQ/JMHjOlj99wrl/uleo+Xg8V6nThY6PHUJaJ1Q9dedoc5/i2e8T1rT5k3yizKDDNuQxIBUm/DlyZ8eWJMec2ljqPGcmWZeQ6meV7ArWE1xCBSnlqLffI3tqPrCQDTyvxrIRsXLtAXH3tMT6Vz7tx5evKJr+opAIDDKXPgrTeelkMHLrdi5RAClyKKEr+PQf7KSPGT1xPv+7piPZ4Qn7/25BOqAOvEQ7IKmd5HcDpuoLWXnY1tAMCNLnPgBQCAbLK/1QAAAJkg8AIAWIbACwBgGQIvAIBlCLwAAJYh8AIAWIbACwBgGQIvAIBlCLwAAJYh8AIAWIbACwBgGQIvAIBlCLwAAJYh8AIAWIbACwBgGQIvAIBVRP8fbi31yD7ZlPEAAAAASUVORK5CYII=;fontFamily=Times New Roman;fontSize=20;" vertex="1" parent="1">
          <mxGeometry x="390" y="51" width="350" height="377" as="geometry" />
        </mxCell>
        <mxCell id="Ofylcr-PgnQvNZqJ4ggt-3" value="v2.2" style="shape=image;verticalLabelPosition=bottom;labelBackgroundColor=default;verticalAlign=top;aspect=fixed;imageAspect=0;image=data:image/png,iVBORw0KGgoAAAANSUhEUgAAAWIAAAFuCAYAAAC7nhIBAAAAAXNSR0IArs4c6QAAAARnQU1BAACxjwv8YQUAAAAJcEhZcwAAEnQAABJ0Ad5mH3gAADwPSURBVHhe7d3vkxzVeS/wZ2QFCajCuMpyEuxb8YsdhSz7BpyCMKNXcXBlRr5mY6itYMde500PfmF2UokSxyVDiPdaAnzvnUE4YYf8WttSSVOFS3VhZvIHeAeqoMyb9b7YGeoG44Cr/MIB6hpJeLfvc370TP843X16d2Z7JX0/cLTT3eecPn2655nTp0ergssIAAByc0D/BACAnCAQAwDkDIEYACBnCMQAADlDIAYAyJnVtyaeOv1t+uV//VIvxfvIrR+hL375K3TbbbfpNQAAkMYqEH/j6yfo8W99Wy/Fe+yb36CPfORW+uKX/hzBGADA0sSnJv70oT+js9//V3rrrbf0GgAASDLxQPxbv30bgjEAQAZTeViHYAwAYG+igfjWW2+V88Qi/eM/PEO//OV/0XPPPau3AgCAyUQD8V/85V/Lh3r+dPn99/XWa1uvVqBCoUY9vTxNYl/l5lAv7e2+pV6N9yf2qVMtYc9Z8loIHzvAtWAqUxPXPBFcyk3yh4PKikuuu0IVvbyXrPdtaHd2Q2penKWBK/YpUpecVjUmOGbJO0FZj3Mi/QKwcwjEkNEMLa0s8Z+eCp1olKjf7hgCWZa8ANev/RGIh00q+29ffaMTedsdup0dNsvjPAllE1mUk/vx5RHNkO2ptoj6dSqK9bptplvmcPngcfBosSzqVD9VnjLtZLAY2XdgOkDVGdduk9Q+D5k5OqdfpUvK6x1HoN9i9hmXx3ScKq9/6kb3OW/L0i8A07IvAvGws0ELA+/2dUAN4jeFfkNU5h2i9U3fm3FInXafnJNqpJVUNklaOfHmLdbnqOvdVg8aNMvr5TRAl9tUaqhb7hXzhECkvNjHejXyRm9VF4lWVZ6u06f6ouUHSRzxAVNdp4Z3bN0Fudq23UJan4f1LnIgmztq3BaWlrdfL9IirY77zHA+k/KYjnNmaZUapRYt6w+rYXORS/B23palXwCmhi/mVH/7N3/lXrlyZUdJlM2s67j8xnD5jSEWXIdKLgcWZdBwS+Tw2hiBshlE9kmuE7cTwz74veyWRo0MtdkTaPvA5bt0XxmWdmxacF+h5aQ6rPvGvs8HjZJLFm0W0vKK46Bwp8t9j9tik8d4nKNjMJybnV4zABOyb+aIA7ea4lZxpELzPFJsd/RoptOmvjMfeDAVXzZZbLneRWqRQ/M7HRzJ8nN0NDzsmznKa9dp0zfknYtkCm7PbOY4LfDor8rHZHFjECO9zwVxW69G/ekPCm3zlmaL+pUm+yzIJk/EzBKddES/VKnlnKQlm+E7wB7ZB4G4RzUOGsX2wvjpOg97/MStsnrAo2+RRxEyvazZTstdDWZoaY2PZ9Cg9ar4kNnZ19ri+1xQc6xV6nLfpQXhLHmnqzhbkj8jgRwgZ/kH4uEmjwEd6q6N5x+Hm+v6lVaZJ6ffpk6vQ+2+b6RqU9YkrVxxlkq7GZnGlZf7NYyUp4FHgGti/tQ3N5pJXJ+zXq1I9TkOrBbzqVnyCv2NgX6lGe4ubPJEDJu0KEbk/AFF9cUdPRQFmJZ9MjXhC1ryDdPXCx59q7zcJmqcCI2q0srGSSgnb2P7VC/6RpOcp+kfWvY3KBQOxkzlxchwsW5o/4T1apEpicD0R1K7A2L6nPthuVXiVTFHwdvL3rc/suT1tKq+9vOdS7VFpXCf2eQJHKev7/ncrMpYHHooat0vAJOXfyD23hhFPVcrvkRgmCaQt8ocKxeO+4KKZdkIi3LiaXpXzinqPEUOSN4dbeWEHGnKbTETsaL8oLE+Ll8oUnthQGvTnpzk0biakhjvczQYtWi3n7HPJfEh4+1jnMxVZskrvrzQpdllL5+Yz+1G+iw1T+g45aicGrSq88wsneTRfp0WvU+AjP0CMGkT/X3EJuL3Tnz79FN6CSCeeKC3PLsHH1YA+8y++dbE5KkHcv5RmJf2/6BnL9p+NfcPwLVlov9Ukon455NOfP0begkgHkbEcL2yCsQAADA91/DUBADA1QGBGAAgZwjEAAA5QyAGAMgZAjEAQM4QiAEAcoZADACQMwRiAICcIRADAOQMgRgAIGcIxAAAOUMgBgDIGQIxAEDOEIgBAHKGQAwAkDMEYgCAnCEQAwDkDIEYACBnCMQAADlDIAYAyNlE/xVn8S82f/HLX6HbbrtNrwEAgDRWgfgbXz9Bj3/r23op3mPf/AZ95CO30he/9OcIxgAAliY+NfGnD/0Znf3+v9Jbb72l1wAAQJKJB+Lf+u3bEIwBADKYysM6BGMAAHsTDcS33nqrnCcW6R//4Rn65S//i5577lm9FQAATCYaiP/iL/9aPtTzp8vvv6+3Xtt6tQIVCjXq6eVpEvsqN4d6aW/3LfVqvD+xT51qCXvOkjdk2Czrcnt4bLuQ5Tzs+TnbDYtzqI5Hp3KTxlen35Ca5QJFi6v1SfVnEX5/XA2mMjVxzRMXZuhiq6y45LorVNHLe8l634Z2Z8dvmouzNHDFPkXqktOqxlz4WfKGDJu0WCdqDCyPba/t8hqI5J3IucnAen/p51B8YFbXGzrPgBpUp2IomKpAXaR6X68YEUGY1891df1cfr2662CcKmt/T/n8IBBDRjO0tLLEf3oqdKJRon67Y7hIs+Q1maOj48KQi7Rz2KOnOLo6J708nH+1QaXWMo1iNQexasuhrgjietXIsEPtPm9b8T6SvPIXr467hQnZH4GYRz9l77YkdGsjP0lDn47yltXLk1A2kUW58a2xSqIZsj3VFlGfP/XFet020+1QuHzwONTtWK2nfqo85fHFm0Fk3+LTe7RfVWdcu01S+zxk5uicfpXOJq/cV7FOfWpRNdRWuz7tUU1uT7n1n+I1kNaHkbyh+pLL2107wbaPt5v2l0XgHA43aZ3D67z/NmDmKH+E9mljoJcrKzzSjblTGGxwzhBZfp02Q8cjeP0WOLaY6zIuj+n4VV7/9aL71jsXu+gvK3w7kOpv/+av3CtXruwoibJpBg3H5VtQbeDyB65LTlctdh2XSg1e61Hbvc2JZROklRs0Si6R447WDBpuw1uItEmsIrc0rjBaPrIPvUylUTtEHeF6TcL7CixzO0u+Ot0ut3v0Otpuo5Q+D5PttuhzwTqvPA5//4lVdn1aKvnPbbypXgMpfRg+h5H8ieV1WxOuHdn2cH3+YzG031bgHBrrCR7rWNflEXFwveE8G/Npct+8bdx30fNmkyfabpXHK2Psvx32l419EYgjAgctToovsBhPnM9OOyyyT/OFIBn2EXxjhdrsCbQ9eOKltGPTgvsKLSfVYd039n0eDY7xsuSN7nOHfZrFNK+B0PGEz2G0vqTyadeOqa9UmdHxWF8LQZFzaKwn7jyY+lTlNQVSU9/LbeEN8tjHx2uTx9juUR8a+m+H/WVr38wRB24jxG3ASIXmnT61O+rGYthpU9+ZD9zmxJdNFluud5FvikO3W1nI8ob5TcMt11wkk/mWzNrMcVooqVv6nd9Bpfe5IG7ZivU56lo8oMqS12hXfRpvateAZR/GSy8fe+3ItvepXtTHJZPpQVk2Wc+h3XmYoaU19QDQa+vFeTGXXKLZos4SUgpvkNdAkE2eiJklOumI906VWs5JWrK/jHZtHwRiNZ9XbC+Mn8zyR5pfZd7RDweG1Gn3yRm9O9LLmu203NVAXNh8PIMGrVfFhb2zr0jF97mg5s+qJJ50p70ps+TdS9O/BpL7MN3uyouHY/q4fGn0TCyTlHPY3yBvOlgZ0EamoF+hFX8bi2LeOZ8HtcXZkvwZCeRTln8g1pP93bXxk9nh5rp+pVXmyem3qdNTT1hH16NNWZO0csVZ/jzexcg0rrzc7x5dYPzpvia+CsSj4+XwUxwbcX3OejX9dSOLd3WWvIkm3afTvgaEhD60stPyk2i7T+I5FG0M70v3bebj1dLuHvqjp4Ca4W7JJk+E/Mokj/h5EEP1xR09ON+pfTI14TuRsjPCH6f6Nm25TdQ4ETpBaWXjJJSTtyji1s43muQ8Tf/QMjIK8DGVF6OKRfHF2HD7J6xXi0xJBG4Rk9odENPn3A/LrRKvijkK3l72ntCn5c1iKn06xWtASrpuDSL1jctnmtaI66ta6NsFNtdC6jlUbawvenXv8pzw9VuUxXVp//XkaVV91zjf2VRbVArvzyZP4Ph97eb+W5WxeAf9tVN8K5Bq+t+aEA8A1AS9nBA3TYyLdZEHEJZlDWzKyUl/L09g3/oBg1ivHwqIvOGHE4F9cApuDz08EcIPFGKE9xVYlnUk71NuMz0JCTP1eah+f5JV+o8hLW8SWdb3UEjL3KcJ9uIaMPYhi+aNOTf+/hyxu3aCbd/htWB5DgP7iq0v4WGdVzZ8zkPHpfqtGywT2p9NnvDxy/YHzr1q67jPLPtrhyb6+4hNxO+d+Pbpp/QSAGQivhO+PEsD3xTK9Uw8MFyeHdDaXj5J2wP75lsTk6cexoyfGo/TNL6PPVl70fa8++d6OMbd4tvlZb6lXjg+5SB8tffT1W+i/1SSifjnk058/Rt6CQBsiJGf/DadM4EHndeQa3VEbBWIAQBgeq7hqQkAgKsDAjEAQM4QiAEAcoZADACQMwRiAICcIRADAOQMgRgAIGcIxAAAOUMgBgDIGQIxAEDOEIgBAHKGQAwAkDMEYgCAnCEQAwDkDIEYACBnCMQAADlDIAYAyBkCMQBAzhCIAQByhkAMAJAzBGIAgJxZ/yvO586dI5F1m5O7zcndHi/rddt63eHDh+meu++h22//XV0aAADiWAfis2fP0h9++tP0mx/7mFweFfJeFIje/9Wv6IUXXqB7772XfvSjNfrU73+Kfu/223UGAAAwsZ6aECNfHu7S1vY2bW2JtDVKv9Y/vZh+880307FjZXrllVfoF7/4hVwHAABm1iPi733v+3TffX9EL730kl4Tdd9999GLL75Ib731llz+jRtuoM//yefpE5/4uFwGAIAo60C8urpKn/nMZ+ijHz1CrjcfIQbJ6hVTC97ywQ99iJ757nfpwQdEIP6EXgsAAGHWUxMiXov0wgv/h1584QWVXnyBOqP0InU6L1JXp1EZ+Wr/6dUKVCjUqKeXd0PUVW4O9dLODJtlKtR215rd1DHJ/gCtV+M+Ff2qU9K5yZIXrjmZ5ohFUP3sZ//7KB0fpc/S8eOfpaqXqsdlGTnY3qeRuLIiPlhWqKKXryviTV9ukv+jI9f+MLTn6jek5sVZGugBjOt2yWlVYz6ws+RlWfvrmuzfa0umEbEIqmIU7KW40XC325FlxNfZ9m0kBpiqGVpaWeI/PRU60ShRv90xBMQseeGaxAHWynPP/ZP75s9+5l66fMWXLqt06bL7vpfev+T+itMHH/zaffI733F/+tOf6hoSDBpuSUVslUoNl0cHUtfhZaerl5RBozTOk1A2iai31PByDly+7l2nq36qukruaLMm9+vbl9esYF1d1wmXlW10eMuYPC6vLm5zV9RtOs7R/qLtsakjLFBGJJ0/eAzectfXH/p4A/0dPCYhsc1dJ7Itrj3B/XAKndedtM87xkAbw9eLoY1xZNtD/R24NsNE3XHbwmLymvpLHY//WPV1zNti+xf2lQxTEzy65VM5HgXrkbBhNNzTI2L5Fz/kq2TDzgYtDLzbsgE1qE5FPUdWmXeI1jd9I4Mhddp9ck6qEURS2axa1UWiVVVX1+lTfXF8OyfmX4v1OeLLWO1r0KBZvS0rMR9bXW+Mb0VPblC13tdbFbm/9sI4T3eO6sXxHK5NHSZyCoLfnfwmV2VX4icj+vXlUX/wm537p0AF2UViHfd1qUVVX18ntnnYpHJ1nTiw6W0Lskxce2zOa9b2Cf16kRZp1VxvTBvjpF2bYb2LLaK5o8ZtYXF5Tf01s7Qqj3VZT2UMm4t8VLydt2U535AjvuCsPLuy4r755pty9Oul0ShYJD0S9tKVDz5wTz/xpPvGG2/oGjIIjAZCI0zD6DLActQhRgrhEbF/RBjcj2jDeAQcFqwrbURs2M5EHePRiimPN2oXr23qSGDoo+AxmOoy9EHSeZJ8bU46bzbnLJQne/tMZZhsl2532rUVETrmhPLRUWu81Lym/hrt23AebPoXcpXtWxP8U4x+vTQaBYukR8JeEuRfArEkn/h7T4yrPBoYqdA8j07bHf1p32lT35kPPFSKL5vN3NHw+GOdNsVuexepRQ7NT2IwMdzkWucovKviLN9Qe+T+eERe1MckU5FGA16bOiagNFvUrzwliqzypLV55jgtiBEqr7e9YUk7r5nap0XKzBzlntQytzH92hTE3Yu6m0p/GJolb8DMEp10RNur1HJO0pLNsBv2DftALH+/BI2/GXH8uPx2RCWU/rhSlUmWEb97Qr5K0qMaX/jBW1oe2/iIW0D14ELf+o0iYnrZfWewweHKhjOeBvEleWdpXcdeS2gz32QvrfHyoEHrYgoh8atyeZ3XLG1U4q9NYUjNcoGq1OVjSAusWfKaeR/E0Q8o2O8yfX2NQ6tvFNyJjIJF+vdeVyZBBO/USCxHd/wGXhvPqw031/UrrTJPTr9NnV6H2n3fyNSm7CQUZ3mspUfHO+EPnDF1DTZ8oTVtfzZ17DXbPuKR25qev/XmNCOmeF77GwP9SpMj+dDdhU0bPXHXJuvV+I5gjgOrxbxslrxGwyYtipE0f4hQfZHSmg37S4apCfWwLjwClkmPgv1J8IJ3Ot8bWF5Q4YCibwGX20SNE6HRQlrZCZC3feK22zdC4n01jcOlIs2WOO9T3kYe3flvq726fA8C+V1IgTtv0/7EiKmmy9jUkaa/QaGQtDtpbeb2hW/3A1NBkfZM6by2qr52qHNT8q6ptDYaxVyb3OblVolXxQRW3l4ulFXAzJLXE+gv7ufFuto/n4dVGYt914Yw6fMNE5VpjjgQVL1bRpH0qrCkbSPehePNLYqn3obbUHkLyO/FheO+N4Zl2UkQT5+7cg5O76vIbzzjHaC4vVVfyFfzmxdpnkcp/tnbyop+Wu/VdXFePvX3i+yvUKT27PHRCNGmjliVE+obBaKc7YSthcQ284hZ3e7r9QsDPWXBwu2Z4nktNbo0u+y1Q8yndmnNm1BNamMC47UpiQ8mr75xMnd5hryh/pKjab4aVvVxzCyd5FF6nRa9yD2l8w2TY/27Jp4+c4Y+97n76eMfv02vSfftU6dp8Utfok9+8nf0GoD8iAdhy7ODceAF2CesA3Gj+fRoBOz9Anj1AM/75fC8Tv5yeLVOpW36ype/zIH4k7qWvSQe+PCIRy/5OV3vAdK16no+9ng7C8ToS5g+60AMcLXDiBj2KwRiAICcWT+sAwCA6UAgBgDIGQIxAEDOEIgBAHKGQAwAkDMEYgCAnCEQAwDkDIEYACBnCMQAADlDIAYAyBkCMQBAzhCIAQByhkAMAJAzBGIAgJwhEAMA5AyBGAAgZwjEAAA5QyAGAMgZAjEAQM4QiAEAcoZADACQM+t/xfncuXMksm5vb8ufgde83b/+yJEjNH///XTgAOI8AEAa60D8g7Nn6QsPPSSDrvrDTwXjA4UCXbhwgY4dO0avvPoqgjEAgAXrKOmKES//FCNfkbbCaYvX65h+44030j13303PP/9DuQwAAPHsA7E3cDaMhsPrVldX6fz58/T2z9/WawAAIE6mQLy1tcUxV/2noq+OwAX+n5MYKT/w4IP0tUcekUksAwBAMutA7E079F9+KTW98+67Mq9XBqavVytQuTnUSzszbJapUOvppZ3ZTR3iGAqFGu2uBRDQq3Gfin7VKencZMkLE5V5auKO2TtS08033STzciH1cz8SF125SbsLXdok67peGPqssiK+dbNCFb28p67Jczik5sVZGvD7ULx/XbdLTqsa84GdJS9Mmv2IWE8zHDp0QyR9+JZbAungwYMy7/Y2RsQA+ZmhpZUl/tNToRONEvXbHcMHTpa8MGnWgdibDv7xa69F0qXLl9TGkNEDvjTDJpX9t0S+kYm8XQ3dIsnbXy9PQtk4ss5qi6hfp6Io46tf1j2qr0yBAUHg1k1tS6orTtw+1Hr/rTmPUsrBOoNlC2TeXY9q4bbLfgre9qupAJ243wZ6vV9ifzCbOsLi+kys94/A1HJP9YHeh8waOOfRqYyJncOUa2sn7fOOMdDG8DVraGMc2fbQRSDrjnkfzByd06/SpeWNvRbj+jhDO687HCytrKy03MtXrrjvvPdeJIn1pnT6ySd16WSDhuM2+J5IGbj8QeyS01WLXcelUoPXetR2b3Ni2SSRekVdpeA6kYccV9Y2aLglKo331W34XkfripO4D93+kq44nFcuj/IyblNDL3SdcTlech1/WwXZ/nFZkT/ajmDfJbfVro5Yhj4LHoOu33cc6vj9+4ye78Q2ZzyHadfWTtqnyviPM5QnqY0mkXar+uJOgdx/3MaQpLyx12Jc+zO283pjHYiffXZFBtd33ns3NXmB+NTpJ3TpjAInLRRUQgElwvCGMorkMwQv/8WStF/bfabtQy56+wnnFcvJbzD7QGxqh6pj/MZLa6tNHQkMfRY8BlNdhj5IulakCZ7DUJ7s7TOVYbJdut1JbTQKHXNC+UjwTJCc13Ccntj927fzepThWxNqjtg0NRFO3rcmuH7500bgNkfcJo5UaN7pU7ujbmCGnTb1nfnAA534shn0LlKL+lQv6npkKlK9r7fPHKeFUouqvD50h2UvbR/CzBKddMR+qtRyTtKSN2knyzo0P4knWcNNWqc5OjqeEJSKsyX9iqW11aaOCSjNFvUrT4kiqzxTOIdp11am9mmRMjNHuSe1zG1Mf38IYmqgWJ+jrsXD0NS8SddibPvt2nm9yvytibvuvCs1ed+asAvEYj6TT3x7YfzElocNfpV5Rz80GFKn3SdndAWkl83G4YtP1+NLK3J3M7S0xsuDBq1XxRtzp1+zStqH4gWz6Jt8QgYbHK5sJLTVuo69NqlzOOlry1b26yz+/SGo5wxV6vIxpAXhLHnjxLc/uZ3Xt8wP6y5fvhSbDh86JJP3rQlx8aaSIyt+86yNn9gON9f1K60yT06/TZ1eh9p93yexTVlbxVkey6zTZtqTAx6xrrkDavCn/nLSUxQTm30Mm7QoRiN8IVN9cfygxrZ9cfyBM6auwYYvtKbtz6aOvWbbRzbncJLXVkh/I/RIU44wQ3cXWa6zuPcH69X4jmCOA6v/kz6GdV6bfja1P6Gd17vMUxM/2dgwpuHrr8vtfl6ZdL6TKgNR+M2sb2uW20SNE6FP6rSyCfob46f8ckpA3Nb6RyA8Qqjpp7q9WuRWcc7/zvHXFSdtH+L1Yl0dI+ddlbFYbzOV5eNthtqkFGm2xHmf8jby6M5/W+3V5dUt8PEF7rzT2mpTRxqbPssirc2Zz+Eurq0kraqvHerclLzrOq2NRjHvD27zcqvEq2IiHm8ve9/KyJI36VpMbH/S+/g6x6NWK0+fOTN6CGeb/u7vv6VLJxs9bRZJPNgwPTgR6wwPh6zKGqmHOLKc76mDfJji1cdp9PBIPlwwrJfMdcWJ24dcH2i7eigSeYA1KjvuD7E+2CZVVuVzXB5hhx6O+NosErdb9mWo/bH9IdnVYRbts/AxmI8pdA0YzndsmzOew7RrayftU2W6kX4bSWxjAtP7I1SXP8ldyu26TJa8WrCfzfVE2m9qJ7jWvwazeeYMffXhh/WSnVOnTtNjj35TLwGAeBC2PDugtdFTWIAMv4+40XxaTjW4266acuBSoqj4fRLyV2SKn5xP/A08V+TjBfH68cceVRXsOfGwpUqmO2X+hA88HJusvPa736AfTHYWiNGX1zrrQAwAu4cRMZggEAMA5Mz+62sAADAVCMQAADlDIAYAyBkCMQBAzhCIAQByhkAMAJAzBGIAgJwhEAMA5AyBGAAgZwjEAAA5QyAGAMgZAjEAQM4QiAEAcoZADACQMwRiAICcIRADAOQMgRgAIGcIxAAAOUMgBgDIGQIxAEDOEIgBAHJm/a84nzt3jkTWbU7uNid3e7ys123rdYcPH6Z77r6Hbr/9d3VpAACIYx2Iz549S3/46U/Tb37sY3J5VMh7USB6/1e/ohdeeIHuvfde+tGP1uhTv/8p+r3bb9cZAADAxHpqQox8ebhLW9vbtLUl0tYo/Vr/9GL6zTffTMeOlemVV16hX/ziF3IdAACYWY+Iv/e979N99/0RvfTSS3pN1H333UcvvvgivfXWW3L5N264gT7/J5+nT3zi43IZAACirAPx6uoqfeYzn6GPfvQIud58hBgkq1dMLXjLBz/0IXrmu9+lBx8QgfgTei0AAIRZB+J/+7d/k4H45Zdf1muSfe5z99OZZ56hBx98gP4bArGdXo0K1ZZeYE6X3JWKXgjJkhcA9jcRiG3887/8i/uz//xP9/LlK6N0aZQuu5cuXXbf99L7l9wPPvi1+z//1/92f/rTN3UN+0zXcanUcAd6cVcmUtfAbTj+Orquw6en1DDVmiUvy9q+SfYNAKSyfljHeeW8w4svvjBKnVF6kTqdF6nrpW5HlhFfZ5OFwMIMLa0s8Z+eCp1olKjf7tBQrxnLkhcA9j0Vj9M999w/uW/+7Ge+UbAeCRtGw7/SI+Inv/MdHhH/VNeQYNBwSypiq+QbjXUdXna6ekkZNErjPAll48g6/WV89cu6R9tKbmCQKUaKoW1JdYWlHktYlpFpTF5T+9QxOjyO9vAIu6S2ZTkeAJgM60C80mq5b775M/f555+3SiIQP/HkU+4bFoF40HB8AW8cFKRIgFHbvc2JZZMYAlckKMrAqwOWDPi+wNxt+F5bBsyUYwkzBe44iXlj9utNZRiP2+Z4AGAirAPxsysrHIjflKNfL41GwSLpkbCXrnzwgXv6iSfdN954Q9eQQSAQiPlPXwCUAdE/mgvZcVAM7UfyBcqk/VoHLvtjiY5a46XmNbVvtG/DcVsfDwBMQqY5YnGvKuaCvTSaExap26GeLwnyL4FYGjbLVCgUVPJ/G4AqNO/0qd1Rs5/DTpv6zjyvHYsvm0HvIrWoT/WirkemItX7evvMcVootajK62s9vS6z9GMRerUCFetz1HVXItvCsuQNmFmik444niq1nJO0NJ5wBoA9Zh+I5e+XIKoe/6xOx6laPU6VUPrjSlUmWUb87gn5KkmPahzciu0F4hGYCvh8n+1XmXf0g6ghddp9cua9kJNeNhuHA5qux5fUt8JmaGmNlwcNWq+KIF3jvWcXfyzCkJrlAlWpy/tNC6xZ8poVZ0vyZ2m2KH8CQD6y/RVnDqvjUXAnMgoW6d97XZkEEbxTI/Fwk9ZFAFwbfwtguLmuX2mVeXL6ber0OtTuOzSKXTZlbRVnqcS1baZ97YBHkmvugBo8Ol5u7uA7CnHHwno1HoHP2X0fOEteo2GTFsVImj9YqL5IOzkUAJgQHvFZOfPMM+4bb/w0MA88Sr963/1/oSTmiP9++X+4//Ef/6FriBF+CCaXOXyH5ijFw6hSqRT8rqxlWSMxDxqaV5UPvALrBuPv63L+8bOw0EM2Q11JrI4lzL89S14h0j6Lh3UZjgcAdsc6ED995ox88JYUfP1JBOLHv7Xs/t+0QMzUwyY5dlYBQQSCcDCVwSEafKzKGqlgJMv5vm2ggvE4jYKlF+TD6yVzXbFMxxKq35/GDwv9gdgyrxRsnzzGQB+F/0JIxuMBgF2x/ivOHIjlX1v++Mdv02vSffvUaVr80pfok5/8Hb0GAADCrANxo/m0fHAlkvcL4NUDPO+Xw/M6+cvh1TqVtukrX/4yB+JP6lr2kniQVyXTdyh4kKcfwE1DXvsFgKuVdSAGAIDpsP7WBAAATAcCMQBAzhCIAQByhkAMAJAzBGIAgJwhEAMA5AyBGAAgZwjEAAA5QyAGAMgZAjEAQM4QiAEAcoZADACQMwRiAICcIRADAOQMgRgAIGcIxAAAOUMgBgDIGQIxAEDOEIgBAHKGQAwAkDMEYgCAnCEQAwDkzPqf0z937hyJrNvb2/Jn4DVv968/cuQIzd9/Px04gDgPAJDGOhD/4OxZ+sJDD8mgq/7wU8H4QKFAFy5coGPHjtErr76KYAwAYME6SrpixMs/xchXpK1w2uL1OqbfeOONdM/dd9Pzz/9QLgMAQDz7QOwNnA2j4fC61dVVOn/+PL3987f1GgAAiJMpEG9tbXHMVf+p6KsjcIH/5yRGyg88+CB97ZFHZBLLAACQzDoQe9MO/ZdfSk3vvPuuzOuVuZb1agX+EKpRTy/vN6J95eZQL+3MsFmmQm13R7ibOvZ7H1+VejXuU9GvOiWdmyx5YUcyT03cMXtHarr5pptkXi6kfu5H4uIqN2l3IYqosiK+KbJCFb0Mu2Q4L7n28YSuk/1lSM2LszTg96d4X7tul5xWNeYDO0te2Cn7EbGeZjh06IZI+vAttwTSwYMHZd7t7Wt/RAxw9ZmhpZUl/tNToRONEvXbHcMHTpa8sFPWgdibDv7xa69F0qXLl9TGkNEDvjTDJpX9tz6+EYi8LQ3dCsnbXC9PQtk4ss5qi6hfp6IoI+vnT/5ygWq9HtVkXfpWOKX+4K2/V4f6qcqUyXbwII9rtK9xObXef2uu6/f1S7CsaIPeECCOLdQeeXzB2341FaATH+9Ar/eLa6vHpo4w83kJ97G33PP1sT7ewLmKTmUktjlw+622xbUnuB9OxmsiW/u8Ywy0MXwtG9oYR7Y9dBHIusN1ajNH5/SrdGl5Y6/FuD7O0M5rFgdLKysrLffylSvuO++9F0livSmdfvJJXTrZoOG4Db73UQYuf+C65HTVYtdxqdTgtR613ducWDZJTL2lkr++9Pq7DpcZZdDbqTQqI7YH92M2aJSC+UT7yHHVnnTbdKXhvHJ5lJcNGm5DLwTb13UdX9skzlvylY20V7YjeMzJbbWrI1bkvKj6xseg6/cdhzp+/z6j5ymxzbIPfP3S5f4bvY62x+aayNo+VcZwLXl5ktpoEmm3qi/uFMj9x20MScobey3GtT9jO69V1oH42WdXZHB95713U5MXiE+dfkKXzihwckLBIxQ4IgxvHKOYC8D/hjcKlRMXZfjNE6gjrb2SIUDqukYX5KiecF6xnPwGG7cnLRCb2qHqGL/x0tpqU0cCw/kLHoOpLkMfJF1Dkq/NSefI5noyXBPZ2mcqw2S7dLutriO/0DEnlI8EzwTJeQ3H6Yndv307r2UZvjWh5ohNUxPh5H1rguuXP20EbmfE7eBIheadPrU76kZl2GlT35kPPLiJL5vd3NHxbJgna/3ROtZpM+k+q3eRWtSnelHvQ6Yi1ft6uzCzRCedFlULVWo5J2nJ24Us69D8JJ5kDTe5pXMUbn5xtqRfsbS22tQxAaXZon7lKVFklSetzTPHaaEk+jZuSicq7ZrI1D4tUmbmKPeklrmN6e8bQUwNFOtz1LV4GJqaN+lajG2/XTuvdZm/NXHXnXelJu9bE3aBWM3JFtsL4yezPDzwq8w7+uHAkDrtPjmjM51ednemXb+fwxe43ocvrfiuSC+YRd/kEzLY4HBlI6Gt1nXstaT+naGlNV4eNGi9KoJrdH55bC+vCb8sbVTi3zeCes5QpS4fQ1oQzpI3Tnz7k9t5fcj8sO7y5Uux6fChQzJ535oQF2kqOYLiN8na+MnscHNdv9Iq8+T029Tpdajd933i2pTdjWnX7ynO8ngpZdQ8bNKiGI3whUz1xfGDGpuySfyBM6auwYYvtKbtz6aOvWbbR3zXseYOqMEjt+W4J2FTvCb6G6FHmnKEGbq7sGmjJ+59w3o1viOY48Dq/6SPYZ3Xpp9N7U9o5/Ui89TETzY2jGn4+utyu59XJp3v5MmAE37T6tuX5TZR40ToEzmtbIL+hsXT/F3Ub0tOO4hbZ/8oh0chNe/JMb9erKtj57yrMhbrbaay3M6mcbhUpNkS533K28ijO/9ttVeXV7fQq1HgzjutrTZ1pLE6LxmktZnbF77dD0wvRdozpWuiVfW1Q52bkne9p7XRKOZ9w21ebpV4VUzE4+1l71sZWfImXYuJ7U96f18fMk9NlP7gXmP61J13ye1+Vt8j5pMnA0tRz7ctEq0abvXk7Qtf7wvHfRefZVmjygn5qSzmrMJfnxnZTf0Zib+00JVzwHpfhSK1Z4/LUZcckVCDVvXE8MzSSR5B1GlRjygiZYt8QRtnL8TtofpCvtrHRZrnEbZ/9raywqMV3pv8upZIF+dp0AjO7ya1VW1PryOWzXnZgcQ280hO3S7r9QuD8ZRQuD1TvCZKjS7NLnvtEM8CurTmPQxIamMC4/tGEgHTq2+czF1unzf2Wkxpf3w7rw/WvwazeeYMffXhh/WSnVOnTtNjj35TLwFAHPEgbHl2MA68cF2xDsSN5tNyqsHlUa6ccuBSoqj4fRLyV2SKn5xP/A08V+TjBfH68cceVRXsOfFQhUcVesnP6QYfgu2N/daevKAfTHYWiNGX1wrrQAwA04MR8fUNgRgAIGf2X18DAICpQCAGAMgZAjEAQM4QiAEAcoZADACQMwRiAICcIRADAOQMgRgAIGcIxAAAOUMgBgDIGQIxAEDOEIgBAHKGQAwAkDMEYgCAnCEQAwDkDIEYACBnCMQAADlDIAYAyBkCMQBAzhCIAQByhkAMAJAz63/F+dy5cySybm9vy5+B17zdv/7IkSM0f//9dOAA4jwAQBrrQPyDs2fpCw89JIOu+sNPBeMDhQJduHCBjh07Rq+8+iqCMQCABeso6YoRL/8UI1+RtsJpi9frmH7jjTfSPXffTc8//0O5DAAA8ewDsTdwNoyGw+tWV1fp/Pnz9PbP39ZrAAAgTqZAvLW1xTFX/aeir47ABf6fkxgpP/Dgg/S1Rx6RSSwDAEAy60DsTTv0X34pNb3z7rsyr1fmWtarFfhDqEY9vTwVvRrvQ+xHp1rC3rLkBYB9IfPUxB2zd6Smm2+6SeblQurnfiQCVrlJQ724U5UV8U2RFaro5ckbUvPiLA24L8U5cN0uOa0qlZumlmfJCwD7hf2IWE8zHDp0QyR9+JZbAungwYMy7/b2tT8inr4ZWlpZ4j89FTrRKFG/3TF8iGTJCwD7hXUg9qaDf/zaa5F06fIltTFk9IAvzbBJZf/ttG+kKm/9Q7fXw2Z5nCehbBxZZ7VF1K9TUZSR9fNoslygWq9HNVmXnm5IqV/UNR5xenWon6pMmdIGpKnHGDJzdE6/SpeWV+7Hd3yjZgSmONQxZG0nANjJPCK+6867IunwocNyW9i2a/ewbtjZoIWBdzs9oAZxgNRv+Mq8Q7S+6XujD6nT7pNzUo38ksrGkdMJXa631FC38SvjiYX15Ys0K+tT0w07qb9VXSRaVWW6Tp/qi8mBKu0Yw3oX+UNk7qhxW1hSXhFEi/U56spj4zRo0KzaQOXqOjW84+4uyPxZ2wkAlviNZuXZZ1fcy1euuO+8925qEvlEOnX6CV06o67jcpB0OUiKBdehkstBQRk03BI5vDZGoGyCSL6By3fxbmm0oxihchzPfWUMdaS1V7I/xkGjxLcZafUpyXnFPsl1zDuJ2X/GcwEAVjJ8a0KNbk1TE+HkfWuC65c/bQRukcW0wUiF5nlU2e6ocdiw06a+Mx94OBZfNru5o9GxXdb6o3Ws02bSkNjiGAUxNaBGsOkPB1Pz9i5SixyaN22cOU4LpRZV+XiDg3+7dgJANpm/NWGamggn71sTdoFYzckW2wvjp/1i2sBH3BKrB076VngUPdLL7s606x+LP0ZBzTlXqcttSAvCWfLGmaGlNT7WQYPWq+IDaPz1vOR2AsBOZH5Yd/nypdh0+NAhmbxvTVgF4uEmjxcd6q6N5xmHm+v6lVaZJ6ffpk6vQ+2+bxRnU3Y3pl2/X9wxsl6tSPU5Dqy+uew41nmLs1RKG6nPLNGamBfn0fGy98QxoZ0AsDOZpyZ+srFhTMPXX5fb/Wwf1gVu3YdNWqz39YJH3xIvt4kaJ0KjvLSyCfobNNAv4+2i/kxijpH3udwq8aqYiCcerHnfzMiSl4PsSd5fvej7yyi8vSkWerXQlIR/uiXpXADATmSemij9wb3G9Kk775Lb/ay+R8wBYbVBHBD0HKz4woHh9l/eEnMMXDjum3+1LGtUOSFHemIeNPZvn+2m/h0wHqMkAqZugy+Zm22fV3x7pOvoPhCpyMG1yBt4tKymJEQqUnthQP4Bdnw7AWAnrH8NZvPMGfrqww/rJTunTp2mxx79pl4CAAAT60DcaD4tpxpcHuXKKQcuJYqK3ychf0Wm+Mn5xPeNXZGPF8Trxx97VFWw58SDtiqZvuPgdN3ACG9v7Lf2AMB+YR2IAQBgOuy/NQEAAFOBQAwAkDMEYgCAnCEQAwDkDIEYACBnCMQAADlDIAYAyBkCMQBAzhCIAQByhkAMAJAzBGIAgJwhEAMA5AyBGAAgZwjEAAA5QyAGAMgZAjEAQM4QiAEAcoZADACQMwRiAICcIRADAOQMgRgAIGcIxAAAObP+5/TPnTtHIuv29rb8GXjN2/3rjxw5QvP3308HDiDOAwCksQ7EPzh7lr7w0EMy6Ko//FQwPlAo0IULF+jYsWP0yquvIhgDAFiwjpKuGPHyTzHyFWkrnLZ4vY7pN954I91z9930/PM/lMsAABDPPhB7A2fDaDi8bnV1lc6fP09v//xtvQYAAOJkCsRbW1scc9V/KvrqCFzg/zmJkfIDDz5IX3vkEZnEMgAAJLMOxN60Q//ll1LTO+++K/N6Za41vVqBys2hXtp7k9j/sFmmQq2nl3ZmN3WIYygUarS7FkBAr8Z9KvpVp6RzkyUvTF3mqYk7Zu9ITTffdJPMy4XUT7i+iTd9uUn+j47KiviGzQpV9PKeMrTn6jek5sVZGvB7TrxXXbdLTqsa84GdJS/sBfsRsZ5mOHTohkj68C23BNLBgwdl3u1tBGKAvTFDSytL/KenQicaJeq3O4YPnCx5YS9YB2JvOvjHr70WSZcuX1IbQ0YP+NIMm1T23yb5RivyFjZ02yRvib08CWXjTKPOOLLeUV1l8gYdar3/1pxHKWXO42tXsGyBzHePPar56pVk+4O3/WoqQCc+noFe7xfXVo9NHWGyTLVF1K9TUZTTByHW+0dgarmn+kDvQ2YNnIvoVEZimwO332pbXHuC++EUOuc7aZ93jIE2hq8lQxvjyLaHLgJZd8z1OXN0Tr9Kl5Y39lqM6+MM7QTGwdLKykrLvXzlivvOe+9FklhvSqeffFKXTjZoOG6D75OUgcsfzi45XbXYdVwqNXitR233NieWjbPLOrsOuaVxhliDRim4H7FfclxVk6rXqyecVy6P8rJBw23oheD+u65DJV97Gect+cqK/NF2BI8pua12dcSK9Leqz9+Hsn7fcajj9+8zeh4S2yz7wNcvXe6/0etoe2zOedb2qTL+4wzlSWqjSaTdqr64UyD3H7cxJClv7LUY1/6M7QQ1R2Tl2WdXZHB95713U5MXiE+dfkKXzihwIkOBJhRkIgxvsqjd1Sku2vRAbAiQ4QtytN9wXrGc/AazD8Smdqg6xm+8tLba1JHAcE7CfRity9AHSdeF5Gtz0jm1uUYM5zxb+0xlmGyXbnfadRcROuaE8pHgmSA5r+E4PbH7t28nKBm+NaHmiE1TE+HkfWuC65c/bQRufcSt40iF5p0+tTvqpmbYaVPfmQ885IkvG2cadYb0LlKL+lQv6jpkKlK9r7cLM0t00mlRtVCllnOSlrxJO1nWoflJPMkabtI6zdHR8YSgVJwt6Vcsra02dUxAabaoX3lKFFnlSWvzzHFaKIm+jZvSiUo755nap0XKzBzlntQytzH9uhXE1ECxPkddi4ehqXmTrsXY9tu1E8Yyf2virjvvSk3etybsArGY4+SLob0wforLQwm/yryjHyQMqdPukzO6KtLLxplGnVEOX+C6Dl9a8V2RXjCLvsknZLDB4cpGQlut69hrSf07Q0trvDxo0HpVBNekr8pN8pxnkaWNSvx1K6jnDFXq8jGkBeEseePEtz+5nRCW+WHd5cuXYtPhQ4dk8r41IS7oVHK0xW+otfFT3OHmun6lVebJ6bep0+tQu+/7dLYpG2cadfoVZ3m8tE6bSU8nhk1aFKMRvpCpvjh+UGNTNok/cMbUNdjwhda0/dnUsdds+4jvOtbcATV45LYc9yRsUufcoL8ReqQpR5ihuwubNnrirlvWq/EdwRwHVv8nfQzrvDb9bGp/QjshKvPUxE82Noxp+PrrcrufVyad70TL4BR+g+tbneU2UeNE6NM7rWycadTpI6cdxK2zf5TDo5Ca9+SYXy/W1b4576qMxXqbqSy3o2kcLhVptsR5n/I28ujOf1vt1eXVLfRqFLjzTmurTR1p+htW37KwltZmbl/4dn/OH/0i7ZnAOTdpVX3tUOem5F1vaW00irluuc3LrRKviol4vL3sfSsjS96kazGx/UnvL4jgUauVp8+cGT2Es01/9/ff0qWTjZ5AiyQedpgepoh1hgdGVmXj7LBO8RAm/WGdIvKO6uLklZPrA+1UD0UiD7BGZcftjO5flVX5HJdH2KGHI+oh1qgup6uOMfQEJq6til0dZr6yOn/4GMzHFDo3hnMb22bZB4b1UrQ92c95evtUmW6k30YS25jAdN2G6vInuUu5XZfJklcL9rO5nkj7Te0EI+tfg9k8c4a++vDDesnOqVOn6bFHv6mXAK4v4kHY8uyA1kZPYQHMrANxo/m0nGpwt1015cClRFHx+yTkr8gUPzmf+Bt4rsjHC+L14489qirYc+IBTJVMd8/8qR94YLZze7GPqwH6wWRngRh9eT2yDsQAkA1GxGALgRgAIGf2X18DAICpQCAGAMgZAjEAQM4QiAEAcoZADACQMwRiAICcIRADAOQMgRgAIGcIxAAAOUMgBgDIGQIxAEDOEIgBAHKGQAwAkDMEYgCAnCEQAwDkDIEYACBnCMQAADlDIAYAyBkCMQBAzhCIAQByhkAMAJAz63/F+dy5cySybm9vy5+B17zdv/7IkSM0f//9dOAA4jwAQBrrQPyDs2fpCw89JIOu+sNPBeMDhQJduHCBjh07Rq+8+iqCMQCABeso6YoRL/8UI1+RtsJpi9frmH7jjTfSPXffTc8//0O5DAAA8ewDsTdwNoyGw+tWV1fp/Pnz9PbP39ZrAAAgTqZAvLW1xTFX/aeir47ABf6fkxgpP/Dgg/S1Rx6RSSwDAEAy60DsTTv0X34pNb3z7rsyr1fmWtOrFajcHOqlHerV+MOrME61nt5gkCUvAFx1Mk9N3DF7R2q6+aabZF4upH5CyJCaF2dpwP0j+tV1u+S0qjHBPUteALga2Y+I9TTDoUM3RNKHb7klkA4ePCjzbm8jEJvN0NLKEv/pqdCJRon67Q6H3bAseQHgamQdiL3p4B+/9lokXbp8SW0MGT3gSzNsUtl/611ujoKMmAYI34oPm+VxnoSycaZRZ1jqPkJmjs7pV+nS8sr9+No/akZgiqNMYlCdtZ0AMHmZR8R33XlXJB0+dFhuC9t27R7WDTsbtDDwbr0H1KA6FXVwqMw7ROubvqAwpE67T85JNUpMKhtnGnWGpe0jrHexRTR31LgtLCmvCKLF+hx1Zds5DRo0qzZQubpODe+4ugsyf9Z2AsAU8JvSyrPPrriXr1xx33nv3dQk8ol06vQTunRGXcelUsMdqAXXoZLLAUQZNNwSObw2RqBsnN3V2XXILY0Kx7Hfx6BR4luHhP37JOcV+yTXMe8kZv8Z+wIAJi7DtybU6NY0NRFO3rcmuH7500bgdrrKI76RCs07fWp31Jht2GlT35nntWPxZeNMo86w9H0IYmpAjWBXItvCUvP2LlKLHJo3bZw5TgulFlX5eIKDe7t2AsD0ZP7WhGlqIpy8b03YBeIe1Tg4FNsL428G8JDTT9w+q4dT+rZ5FGnSy8aZRp1h8fsQhtQsF6hKXd5HWhDOkjfODC2t8bEMGrReFR8wNT5SJbmdADBtmR/WXb58KTYdPnRIJu9bE1aBeLhJ6zyK666N5ySHm+v6lVaZJ6ffpk6vQ+2+b8RnUzbONOoMi9sH69WKVJ/jwLqSHvSs8xZnqcSt3xxP+EbNLNGamPfm0fGy9xW4hHYCwPRlnpr4ycaGMQ1ff11u97N9WEf+4DFs0mK9rxc8+vZ5uU3UOBEaEaaVjTONOsNi9sF1LrdKvCom4okHa/pbDZnycpA9yfurF8ejXbG9KRZ6tdCUhHje533UJPUFAExb5qmJ0h/ca0yfuvMuud3P6nvEHDxWG8TBQ8/HLhKtGqYC5O0zx8OF475n+ZZl40yjzjDjPiQRMPU+fMn85Qz7vJUVl7qOmguW+YocXIu8gUfLakpCpCK1FwbkH2DHtxMAps3612A2z5yhrz78sF6yc+rUaXrs0W/qJQAAMLEOxI3m03KqweVRrpxy4FKiqPh9EvJXZIqfnE9839gV+XhBvH78sUdVBXtOPHSrkun7Dk7XDYwGd24v9gEA1zrrQAwAANNh/60JAACYCgRiAICcIRADAOQMgRgAIGcIxAAAOUMgBgDIGQIxAEDOEIgBAHKGQAwAkDMEYgCAnCEQAwDkDIEYACBXRP8frNL3mmrpDI4AAAAASUVORK5CYII=;fontFamily=Times New Roman;fontSize=20;" vertex="1" parent="1">
          <mxGeometry x="810" y="51" width="356.9" height="369" as="geometry" />
        </mxCell>
        <mxCell id="Ofylcr-PgnQvNZqJ4ggt-5" value="" style="rounded=0;whiteSpace=wrap;html=1;sketch=1;curveFitting=1;jiggle=2;fillColor=none;strokeColor=#d6b656;" vertex="1" parent="1">
          <mxGeometry x="400" y="310" width="150" height="30" as="geometry" />
        </mxCell>
        <mxCell id="Ofylcr-PgnQvNZqJ4ggt-7" value="" style="rounded=0;whiteSpace=wrap;html=1;sketch=1;curveFitting=1;jiggle=2;fillColor=none;strokeColor=#82b366;" vertex="1" parent="1">
          <mxGeometry x="400" y="260" width="310" height="40" as="geometry" />
        </mxCell>
        <mxCell id="Ofylcr-PgnQvNZqJ4ggt-9" value="" style="shape=image;verticalLabelPosition=bottom;labelBackgroundColor=default;verticalAlign=top;aspect=fixed;imageAspect=0;image=data:image/png,iVBORw0KGgoAAAANSUhEUgAAAskAAAC/CAYAAAAM0UEYAAAAAXNSR0IArs4c6QAAAARnQU1BAACxjwv8YQUAAAAJcEhZcwAAEnQAABJ0Ad5mH3gAAFI0SURBVHhe7Z09duO6k/ar321M0DeQHPh4BdQKZCcdOe2MCqXEmc75J846oUIpuk49iRNTK7BW4OOgqWA6mHx2oLfwRYEASBZFu0VS9TuXfS2yCBIPgEKBAqFv//d//3cAhvlC/vd//xf+67/+S39imsL6tYP1awfr1w7Wrx2sXztYv3Z8++///m8OkhmGYRiGYRjG4tsB0X8zzJfw588f+Offf/Qnn8N/uApWIfT7/v27/sQ0hfVrB+vXDtavHaxfO1i/dvw//X+GOQscIDMMwzAM00U4SGbOBgfIDMMwDMN0FQ6SmbPAATLDMAzDMF2Gg2Tmr8MBMsMwDMMwXYeDZOavwgEywzAMwzB9gB4k71cw+fYNvjnbZLXXBgDbGe6brOC4R5w2QbsJWGaS/XYGk4mV1mQCs61jZMBrzyzbyWxbuIakxkbdx/G43CYzWDnXrLfbw0pcB9N3kflHe//QFma439ZK0EgDib62o3FfcANkmX+Td6wjft73qKlVHiX61KeDNquizWQVqENMIyi6h6g8D4+p/eFNtiGKTQ84VT9F2KdICL76SEU6Hefk+kfwBa7NzNMHfRP2FYV0Qv1Sh/ks/XxtDJS61d/695VQNG7nPxgFof6JJeBIpDFGOPEhzbJDZm/6sCCN4QBRctyXJYcILxEltpW2g+gQJ2meTprE0hbiVFtp5HUxDdwvbVOVZsGOYJMlkXP/6SGJ1H3Yt0exy23UR02m7fz8qvsrXiesgUi3eN826rp43Na4B/zP//yP/svC1A1dZmms8nbMutETdUuL+hTkqU3nqFuktTZ1zSunjhLU79wQdA9Sd57Yl6b+pstM2lFsLAalH5L7N3F+qA4TfLWgNh3NkPSj+AJlg75Z+50M9XRtcv/t2IR89/D0q9ZGQKlbva5/XwhJ4wbld2n6UaHWv2ZBck1wVgySdZDjlppIp6Qw/WM6Dfe60s4EnRQbUadEJXID2/QQOwKR7Jy0JbLSYsUWldW5Fy/NCg1MAymkLdH3EPnpd51QI/UGVKYcjSglGrnn1abjfVaEy7mbdNHJ1ese5tTzZHkVzvMpsxmSfsY/xEni+a4c0XYoWtWloxmOfhRfUGGTX8/vNwTFdI5chH5WWpS6RbExdFG/r4OmcZPyuyz9aDSpf+TpFvvf7/ovGvvVT1hAAtl6qvcI9rB63OC9JfBg7zZMHwALGjaPejrB/hWed+h2lnMYSQPNdI3B/RvMxU6KTRn73yBydXNVZYS4dtMfEMMOnl+tR/TZB+yie3j4cQOw+4BM7xZ5fpU3+ANUlqs1GM2XkMSYRlZ8/L+d3cImTuHpXu/oNVt4ERLc31llNoK7e1H4L3jUEMMPR6PpQwLR7hmU9JR0MviQ8ocqHHMa1PJzOf28X4udc54LxaYrnKoDWt09QYZ+bT2/0nt8KL6akk53OVW/z/IFU1gfDvAW6lyiaxjrP7vL6fWPAqVu9bv+nZuvLb9LoEn9a/ji3ge8WnNES+dg7VfwcwGQPDmBq3ZSGG06+w26oE2QKQJPiOC6yutQbGz2e/xPbFuY4U3uygL2SrsxXMvbPIbCW1FrRb5kAL2Bl7ymqjxH+Q3WaTCF+XoN86l1FPV83ESQBG90OIyucHCAw5HfeaWy/7bZgSW9RzEd1aEVxmpIJguB+Uz88qNRd95+9YgtKoZlxYiXYtN1SPqNRiV+w6XGV5PT6Q/1+lF8wQjmyxiDjVs5D1T2AdsZ9mc7/0GM5mgTeFjTI+r1I2pDqVsDrH+fQ/P6ZzjV/14kDepfsyB5t4Hn6yVkWQZZqgpy7L2l9gG/0FvcpIGnuPqJ7DFgLMMu6Bu4wrHRbGK/wDWD4hx1io1gA7fjMYzldgubXQTxfWgkUWeng/n337rj2YN4eKOeUKgA+t1kQOY5gvs7LQZZA8MeVmrEUf1UvE9QnuDrp/WLnzNYycGKeFFmBpMxDli0CSmdEHLQgWWQPOin+0wjTtb9lPP0E+LKsqLYdIhT9WsCyVf3lM/UL+QLpg+QJhFsFroPuEWDJA0/TMEA5mizDNt0jTb6NdGGOY06jf+G/2By6EHy3RLSNIO3+RSDcIzCp2t4knMj3Mf713CNA5p8ykRrRMD6CHCvHX6Wyie1t2MMgrUFzUYQQ6rmYastu4f3RajzqLeTozbztb+c8mGeZqsAevf8KvO/f32W0zBMjNyY7S9Y7Pr9hOw0prDW5biQg5UxPD4DLOW+NqhBh/hm4OniNO0h2xesATX1n2JzSZB99aUT9gXb2RhuFzeQZsb/p3D/XDLIkNP6LJuerjxEpZE2zEmwxt2iGCS7SwdZDX40msLUngKAlD3ev1tjILNb+IU6ugJxhj1NIcwNHAdJESSZmDuiHT7ex/opwb32lAaKTYDRXHcej94SdQVCdvpJp8yKno9sAmEVQKspI/KrPHtqBVkDwRZmOIoc3BNPrUH+tL0MUY5v2lHg9va2Rh3UKFpCTScHO8XJGBZYculbf78WPTuNddecUl7iMV8+nz8ExaZjnKofkSa+upd8in4lvkA/WY5T9DVmJ+o5F/1JVT9hbLDf+9X1WOZU/U7VhqFD0fiL/QdTpBgki2BQPonVmzenmAoGN/orvmKcrKYiYOnmwXcR/ZKbeflhfI2BbgC7klBsKlCdRz2+ncrLBqPwfD6yPqICaBGgqwn2xRdF6jTAwBgHKGLdPjnPMkpgeYfK6CkHJrTOxGf991BQLxzZA6QAhDno4XTEdBzRKSaQyWCb+WxI5Reg9Dz5LUrNXHyKTU84VT9GQdevwhdU+hf9UGQr1un21/7vO7X6UbRh2tFCY/YfX4M33UI9iTWb3qmfMLsPhisLZboGFSfbzkRPSi8bbcsOD4NKM0F9dAf30Q4WrrE9J4diUwG1Yvl2Zl7yC7zgoVAg/P7ygvfgVvhqDdQLSGoOs3wKjXbH+dHiaxhrX2+/fpnCDyGBnpKicFYBKemI5IAkf2pPSEciOsVb1FV0ivwEuT1U3V2anGeeEC8r5uJTbLrIqfoROMVX9442+tX4AvnQJRCM2MELxabTnKhf7/PdA0gaf6H/YHwOJPQafHD8YYfQAtela/cV9mk7ea5aCFts5B8TydS6doU0CTZqXby48CMhoR/voNpJ9ILeUhc7g4hKx7lPC6WBWKePoIGFu15iHwiu0+iUmb8Yuqk7x7IILphem056iJ107K0PdHKdy1rdj22gWXlpdNvy9ttQbJBB6YeoumvW6lXn438amq8WVKdzZDj60XxB7psd/Wy/69voviDgm4dU/yjaCOSxmrpFsRF0Ur8vhKQxofwMl6YfFWr9IwbJAlUQsrDkJgK8YoqycF0nYQJJp/RkwUtnbqWHlSKEcEDSuWnbKPYdUZ2NafDFTeQBxdE2AqqdQgkccoymElcGvK4GUbkGBnl/oet1mLJGmjd+uYXyjh2+bvxKnzjwIys16ZhyKNkqiqczdNXJ1ZWfaktiv96hqS/3El/iQLERDEq/svpc0KHeV9PSUQxGv7I86+2os6+fDEb0UQXamIcaevNtFMNqvwRtKHVrAPXv66DUv/ryM1yefgQa1L9v4h88eFb2qwmM5duc1mR1ZjD8+fMHvn//rj8xTWH92sH6tYP1awfr1w7Wrx2sXzuarZP8RYzmT5DE73A7VqtqiJfWGIZhGIZhGOZcdCJIli+zrd/gcMggS1NYnryoMMMwDMMwDMO0pyNBsmEEo+mUp1wwDMMwDMMwZ6VjQTLDMAzDMAzDnJ9v4s1H/TfDMAzDMAzDMEgnVrdgho14u/aff//Rn3wO/+EqWAW/ndwO1q8drF87WL92sH7tYP3awdMtmLPCATLDMAzDMF2Eg2TmbHCAzDAMwzBMV+EgmTkLHCAzDMMwDNNlOEhm/jocIDMMwzAM03U4SGb+KhwgMwzDMAzTB+hB8n4Fk2/qZ6Ptzf4J6e0M901WYP+o9H41QbsJuL80vd/OYDKx0ppMYLYt+TlqvPbMsp3MtoVrSGps1H0cj8ttMoOVc816uz2sxHUwfReZf7T3D21hhvvdn9tupIFEX9vRuC+4AbLMv8k71hE/73vU1CqPEn3q00GbVdFmsgrUIaYRFN1DVJ6Hx9T+8CbbEMWmB5yqnyLsUyQEX32kIp2Oc3L9I/gC12bm6YO+CfuKQjqhfqnDfJZ+vjYGSt3qb/07L7S+kamDUP/EEnAk0hgjnPiQZtkhszd9WJDGcIAoOe7LkkOEl4gS20rbQXSIkzRPJ01iaQtxqq008rqYBu6XtqlKs2BHsMmSyLn/9JBE6j7s26PY5TbqoybTdn5+1f0VrxPWQKRbvG8bdV08bmvcA8Ra3B6mbugyS2OVt2PWjZ6oW1rUpyBPbTpH3SKttalrXjl1lKB+54age5C688S+NPU3XWbSjmJjMSj9kNy/ifNDdZjgqwW16WiGpB/FFygb9M3a72Sop2uT+2/HJuS7h6dftTYCSt3qdf07K8S+UcP6haHWv2ZBck1wVgySdUG6pSYdeElj9I7pNNzrSjsTdFJs0EpWIjewTQ+xIxDJzklbIp0OOg/hbJx78dKs0MA4oULaEn0PkZ9+1wk1Um9AZcrRiFKikXtebTreZ0W4nLtJF51cve5hTj1PllfhPJ8ymyHpZ/xDnCSe78oRbYeiVV06muHoR/EFFTb59fx+Q1BM58hF6GelRalbFBtDF/U7K8S+0cD6+TSpf+TpFvvf7/ovGvvVT1hAAtl6qvcI9rB63OC9JfBg7zZMHwAbIWwe9XSC/Ss879DtLOcwkgaa6RqD+zeYi50UmzL2v0Hk6uaqyghx7aY/IIYdPL9aj+izD9hF9/Dw4wZg9wGZ3i3y/Cpv8AeoLFdrMJovIYkxjaz4+H87u4VNnMLTvd7Ra7bwIiS4v7PKbAR396LwX/CoIYYfjkbThwSi3TMo6SnpZPAh5Q9VOOY0qOXncvp5vxY75zwXik1XOFUHtLp7ggz92np+pff4UHw1JZ3ucqp+n+ULprA+HOAt1LlE1zDWf3aX0+sfBUrd6nf96wJ1fSNTRZP61/DFvQ94tebBlM7B2q/g5wIgeXICV+2kMNp09ht0QzVBpgg8IYLrKq9DsbHZ7/E/sW1hhje5KwvYK+3GcC1v8xgKb4XXEfmSAfQGXnJPo/Ic5TdYp8EU5us1zKfWUdTzcRNBErzR4TC6wsEBDkd+55XK/ttmB5b0HsV0VIdWGKshmSwE5jPxy49G3Xn71SO2qBiWFSNeik3XIek3GpX4DZcaX01Opz/U60fxBSOYL2MMFm/lXFvZB2xn2J/t/AcxmqMNhi4lNn2gXj+iNpS6NcD693cpK6fqvpHRNKh/zYLk3Qaer5eQZRlkqWosY+8ttQ/4hd7iJg08xdVPZI8BYxl2BbiBKxzbzib2JPUZFOeoU2wEG7gdj2Est1vY7CKI70MjiTo7Hcy//9Ydzx7Ewxv1hEIF0O8mAzLPEdzfaTHIGhj2sFIjjuqn4n2C8gRfP61f/JzBSg9YtuKFkTEOWLQJKZ0QctCBZZA86Kf7TCNO1v2U8/QT4sqyoth0iFP1awLJV/eUz9Qv5AumD5AmEWwWug+4RYMkDT9MwSDxaLMM23SNNvo10Yb5Gih9I/Np0IPkuyWkaQZv8ykG4RiFT9fwJOdGuF/PXMM1DkjzKROtEQHrI8C9dvhZKp/U3o4xCNYWNBtBDKmah6227B7eF6HOo95OjrrNVxtyyod5mq0C6N3zq8z//vVZTsMwMXJjtr9gsev3E7LTmMJal+NCD1genwGWcl8b1KBDfDPwdHGa9pDtC9aAmvpPsbkkyL760gn7gu1sDLeLG0gz4/9TuH8uGWTIaX2WTU9XHqLSSBvmi/iqvpEJUQyS3aWDrAY/Gk1hak8BQMq+nrlbY2HtFn7DGV2BOMOephDmBo6D3AiSTMwd0Q4f72P9lOBee0oDxSbAaK47j0dviboCITs9mpNZ0fORTSCsAmg1ZUR+lWdPrSBrINjCDEfqg3viqTXIn7aXIcrxTTtj3N7e1qiDegoioaaTg53iZAwLLLn0rb9fi56dxrprTikv8Zgvn88fgmLTMU7Vj0gTX91LPkW/El+gnyzHKfoasxP1nIv+pKqfMDbY7/3qerx4qn6nasN8PnV9I/NpFINkEQzKJ7F68+YUU8EC1F/xFeNkNRUBW2cefBfRL7mZlx/G1xjoBrAbOcWmAtV51OPbqbxsMArP5yPrIyqAFgG6ekGi+KJInQYYGOMARazbJ+dZRgks71AZ/bWKCa0z8Vn/PRTUC0f2ACkAYQ56OB0xHUd0iglk0qEwnw2p/AKUnie/RamZi0+x6Qmn6sco6PpV+IJK/6IfimzFOt3+2v99p1Y/ijbM+Wj6fhZDwptuoZ7Emk3v1E+Y3QfDlY1qugYVJ9vORE/8Lxttyw4Pg0rzEsDoDu6jHSxcY3tOFcWmAqpj9e3MvOQXeMFDoUD4/eUF78GttNUaqBeQ1Bxm+RQa7Y7zo8VXXda+3n7FNYUfQgI9JUXhrAJS0hHJAUn+1J6QjkR0ireoq+gU+Qlye6i6uzQ5zzwhXlbMxafYdJFT9SNwiq/uHW30q/EF8qFLIOCzAxCKTac5Ub/e53sgkPpG5tM4kNDrI8Jx8erSBdZDay86a/dJO3muWshcbOQfE8nUunaFNAk2+RqW+nriR0JCP95BtZPoBdmlLnYGEZWOc58WSgOxTh9BAwuZbkmaXSW4TqNTZv5i9qbuHMsiuOB9bTrpIXbSsbc+0Ml1Lmt1P7aBZuWl0W3L229DsUEGpR+i6q5Zq1edj/9paL5aUJ3OkeHoR/MFuW929LP9rm+j+4KAbx5S/aNoI5DHauoWxUbQSf3OCrFv1LB+Yaj1jxgkC1RByAYhNxHgFVOUDch1EiaQdEpPNi7pzK30sOGFEA5IOjdtG8W+I6qzMQ2+uIk8oDjaRkC1UyiBg0GrdkKVAa+rQVSugUHeX+h6HaaskeYOVm6hvKMz0I1f6RMHfmSlJh1TDiVbRfF0hq46ubryU21J7Nc7NPXlXuJLHCg2gkHpV1afCzrU+2paOorB6FeWZ70ddfb1k8GkPqpAG/NQQ2++jWJY7ZegDaVuDaD+nRda3yhg/QI0qH/fxD948KzsVxMYyzdm18cXApjB8OfPH/j+/bv+xDSF9WsH69cO1q8drF87WL92sH7taLZO8hcxmj9BEr/D7VitqiFeWmMYhmEYhmGYc9GJIFm+zLZ+g8MhgyxNYckzzxmGYRiGYZgz0pEg2TCC0XTKUy4YhmEYhmGYs9KxIJlhGIZhGIZhzs838eaj/pthGIZhGIZhGKQTq1sww0a8XfvPv//oTz6H/3AVrILfTm4H69cO1q8drF87WL92sH7t4OkWzFnhAJlhGIZhmC7CQTJzNjhAZhiGYRimq3CQzJwFDpAZhmEYhukyHCQzfx0OkBmGYRiG6TocJDN/FQ6QGYZhGIbpA/Qgeb+CyTf1s9H2Zv+E9HaG+yYrsH9Uer+aoN0E3F+a3m9nMJlYaU0mMNuW/Bw1Xntm2U5m28I1JDU26j6Ox+U2mcHKuWa93R5W4jqYvovMP9r7h7Yww/3uz2030kCir+1o3BfcAFnm3+Qd64if9z1qapVHiT716aDNqmgzWQXqENMIiu4hKGVBKi+KX+gwJ+tHaTfoxwr6BbTpe5s4TT+aNqS6daH170hZf1Tjt/G6+bHA5vaTl0s4bjBwn9YOcv0XS8CRSGOMcOJDmmWHzN70YUEawwGi5LgvSw4RXiJKbCttB9EhTtI8nTSJpS3EqbbSyOtiGrhf2qYqzYIdwSZLIuf+00MSqfuwb49il9uoj5pM2/n5VfdXvE5YA5Fu8b5t1HXxuK1xDxBrcXuYuqHLLI1V3o5ZN3qibmlRn4I8tekcdYu01qaueeXUUYL6nRuC7iEoZUEqL4pf0AxJP8p5uW/R7SZDrVxtmrSJIelH0QaNlDY67VP7HMOg6p9FuD8i+G2xL039TddB9x46qd8Xk9cn3EJtsvft99w0qP/NguSa4KwYJOvG4l5VO5fQzfjHdBrudaWdCTopNqZSuYFteoidikWyc9KWSNHR+QqxnXvx0qzQQNk6aUv0PUR++l0n1EiLdUXg1JcSjdzzatPxPivC5dxNuujk6nUPQSmLBjZuOwi1S2Q4+lHO832aoLnGR4ajXwNtKusWxebIkOrfkZL+iOi3Q8hyCNh0Ub+vRNVH8QAtCdbXsrLqU/s9N03qPzlILqvANvaFw/YlziXHOa6j/cp2S7FBghUocC7NLuBshXMQ9y2dhH2+K36dBukhiWM5CreR2mIalHLoGn4jJXRWno4aPRhRp1I6PWXj1o9gOXeU7jk5iu4hKGVBsCG2ecPQ9Gt+nrbJ/QalHI4MR78wBW0odeti69+R0v6I5LdDhO9J0D39vpgsK7RTX5O+t99z06z+N3xx7wNerblGpXOw9iv4uQBInuYw0rsUGXzs8H83V85+wwju7tH97D7QEsk+YAcRXI/lwTAUG5v9Hv8T2xZmeJO7KIGHqT5mU2k3hmt5m/IuJduXjcrX9AfEsIGXfF6yynOU32CdBlOYr9cwn1pHUc/HTQRJ8EaHw+jqBv99h995pbL/ttmBJb1HMZ0prHEwuHaky2QhMJ+JX34ulLIg2DRt8z2hXr8wVedJH7adSX8cL40/HmabaKpfUJuv6HN6Alm/2v6oLI1yv71fPWKvGcNyHu4VL4rRqCQ2MHCf9hWU1f9mQfJuA8/XS8iyDDIcSsLmFsYYKBf5gF/odW7SN/Dq+/433oIdMJZh3+gNXIkJ7BP7RYAZFOdYU2wEG7gdj2Est1vY7CKI76/0MZs6Ox3Mv//Wg4Q9/MaMxT9ErVUB9LvJgMxzBPd3WgyyBoY9rIQXT558PfuK1uDmqiJDcrCxg8XPGaz0gGUrXlQY44BFm5DSCSGdPJZB8oDuhmnMqbqHoJRF0Iba5jvIyfW24XkYAEofdoviJcvwwwBDn9rEZ9S/Sm0+s8/pIK30q+mPKH7bYwu/FjjsYH98Otyn0WlY/+lB8t0S0jSDt/kUBzo40pmu4SnBaHDzglXc5hquMSDfPH7WCgwiYH0EuNfBeZbKJ7W3Y3RI2oJmI4ghxRHYwWzZPbwvQoF+vZ0cdeye4VVkcv8KzxhIq7hXBdC751eZ//3rM+yiezAxcmO2v2Cxu8QRNo6WdTku9IDl8RlgKfe1QTl58c3AEz+1ODOUsiizobb5CwZ9tPJfKdw/o/8qXRXnAttEpTaUunWh9a+2PzrBb29f0JqfIp8O92lfSTFIxtHIcUkMMTI+Oo7RaApTewoAUvZ4+m6NDWK38IPP0RWOv4vTFMLgKD2/VARJ9gZrE5zjfayfEtxrT2mg2AQYzXWg/+gtUVcgZKdHzDIr4us3KxBWAbSaMiK/ArGnVpA1EGxhdrsZ3uhQa5A/bS9DlOPbcbDy9rZGHdQoUEJNJwedyWQMCyy59M2dCsSQaax7CEpZVNmc2Oa7wKn6nXzeFOZCG/TJvzxtetgmPqX+aYLafGGf0wVO1o/YHwktqvx2Aax/4hFo/GNYfdxfg/u0xjSs/8UgWQSDclSsN29OMRVsJHo6RjFOVlMR8O6waEPs4fUZg8roGi2R8TU6nQB2Jik2FahAvx7fTuVlgx4xn4+sj6gAWjjLLYhDahqGoU4DdEQ4QBFrI8p5Wjg6XN6hMvqrKxNaZ+Kz/nso7MWcFSy1ym9BCPMBw+mIr0aFM0kgk06b+WxI5SehlEWFTcs231Xo+hUpnLcVa9D669KHGVabqNWPos1f6HO6Sp1+rfqjMr8tn0zjgGPg79t8DdynfSal9R9HevWUvM3rvg1or26Rf3bfaC1ZIkbiHStZlqNwPxQb/14N7n6qnUDui+JDjNcvXl7dUxSLtQsDb/RWaKCuo85R+lVsoQQ6SOjtWreuGM3yPEmNfO2CdawqHUkqy6ho1x+6+HYyTfcQlLKos6G1ecOQ9Ks9r0QDPNFpT/Q2MRj9SNpQ6tZl1j95DuavdBPnEv22glBmSBf1+zuEV2FQ9Lv9npsm9Z8WJJsEROV3FmG3C7D0wk5BmsZmFsIWm1kM27tJ2ehEwGls1dqBhTQJNnmQq6+XZWLxcrGveE2qnUQ7xZBTUOk492mhNHB/TKREAwsVmIfT7CrBRuqUmb+Yt6k7x7IILvhdm45xJnaZHrc+0EknV6v7sQ00KwtieVH8gmY4+iGE83Lfkvtq7adybZq1iSHpV68NQqlbl1r/HPz+iOi3Bbr/rEpf0En9vhhVp7CdijLKYwR9cAjt99wQ6r+BGCQLVEIqKBSbCPCKBeIHyYgJJJ2ryyBbFLSdnrM2sEE4MlkptG0U+46ozsY0+OKmg1RtI6DaKVQlDjlGUwiVAa+rQVSugcF3St2nrJGagVausZd3dLi68ip9Ym8wIqhMx5RDyVbnoLtAV51cXfmptiT26x2UsmhQXhS/IBiMfhpKu8kH3HqTnYE+2rRNDEu/Gm00n9HnGIZW/2zC/RHNbwfjhQBd1e/LKGufRquBtN9zU+9HFd/EP2h0VvarCYwXN5Bma3DeDWQGwJ8/f+D79+/6E9MU1q8drF87WL92sH7tYP3awfq1o+GPiXwNo/kTJPE73I7VqhripTWGYRiGYRiGORedCJIxTIb5+g0OhwyyNIXlyYsKMwzDMAzDMEx7OhIkG0Ywmk55ygXDMAzDMAxzVjoWJDMMwzAMwzDM+fkm3nzUfzMMwzAMwzAMg3RidQtm2Ii3a//59x/9yefwH66CVfDbye1g/drB+rWD9WsH69cO1q8dPN2COSscIDMMwzAM00U4SGbOBgfIDMMwDMN0FQ6SmbPAATLDMAzDMF2Gg2Tmr8MBMsMwDMMwXYeDZOavwgEywzAMwzB9gB4k71cw+aZ+Ntre7J+Q3s5w32QF9o9K71cTtJuA+0vT++0MJhMrrckEZtuSn6PGa88s28lsW7iGpMZG3cfxuNwmM1g516y328NKXAfTd5H5R3v/0BZmuN/9ue1GGkj0tR2N+4IbIMv8m7xjHfHzvkdNrfIo0ac+HbRZFW0mq0AdYhpB0T0EpSxI5UXxCx3mZP0o7Qb9WEG/gDZ9bxOn6UfThlS3LrT+HSnrj2r8Nl43PxbY3H7ycgnHDazf50Cu/2IJOBJpjBFOfEiz7JDZmz4sSGM4QJQc92XJIcJLRIltpe0gOsRJmqeTJrG0hTjVVhp5XUwD90vbVKVZsCPYZEnk3H96SCJ1H/btUexyG/VRk2k7P7/q/orXCWsg0i3et426Lh63Ne4BYi1uD1M3dJmlscrbMetGT9QtLepTkKc2naNukdba1DWvnDpKUL9zQ9A9BKUsSOVF8QuaIelHOS/3LbrdZKiVq02TNjEk/SjaoJHSRqd9ap9jGFT9swj3RwS/Lfalqb/pOujeQyf1+2Ly+oSb1yZZv/Y0qP/NguSa4KwYJOvG4l5VO5fQzfjHdBrudaWdCTopNkITIYIb2KaHWAhlVUKSnZO2RIqOzleI7dyLl2aFBsrWSVui7yHy0+86oUZarCsCp76UaOSeV5uO91kRLudu0kUnV697CEpZNLBx20GoXSLD0Y9ynu/TBM01PjIc/RpoU1m3KDZHhlT/jpT0R0S/HUKWQ8Cmi/p9Jao+igdoSbC+lsH60WlS/8lBclkB2NgXDtuXOJcc57iO9ivbLcUGURXP6QAC59LsAs5WOAdx39JJ2Oe74tdpkB6SOJajcBupLaZBKYeu4TdSQmfl6ajRgxF1KqXTUzZu/QiWc0fpnpOj6B6CUhYEG2KbNwxNv+bnaZvcb1DK4chw9AtT0IZSty62/h0p7Y9IfjtE+J4E3dPvi8myQjsNaeLD+tFpVv8bvrj3Aa/WXKPSOVj7FfxcACRPcxjpXYoMPnb4v5srZ79hBHf36H52H2iJZB+wgwiux/JgGIqNzX6P/4ltCzO8yV2UwMNUH7OptBvDtbxNeZeS7ctG5Wv6A2LYwEs+L1nlOcpvsE6DKczXa5hPraOo5+MmgiR4o8NhdHWD/77D77xS2X/b7MCS3qOYzhTWOBhcO9JlshCYz8QvPxdKWRBsmrb5nlCvX5iq86QP286kP46Xxh8Ps0001S+ozVf0OT2BrF9tf1SWRrnf3q8esdeMYTkP94oXxWhUEhuUw/q1p6z+NwuSdxt4vl5ClmWQ4VASNrcwxkC5yAf8Qq9zk76BV17733gLdsBYhn2jN3AlJrBP7BcBZlCcY02xEWzgdjyGsdxuYbOLIL6/0sds6ux0MP/+Ww8S9vAbMxb/EE5DBdDvJgMyzxHc32kxyBoY9rASXjx58vXsK1qDm6uKDMnBxg4WP2ew0gOWrXjRaIwDFm1CSieEdPJYBskDhgtMY07VPQSlLII21DbfQU6utw3PwwBQ+rBbFC9Zhh8GGPrUJj6j/lVq85l9TgdppV9Nf0Tx2x5b+LXAYQf74xNh/RrRsP7Tg+S7JaRpBm/zKQ50cKQzXcNTgtHg5gWLyOYarjEg3zx+1goMImB9BLjXwXmWyie1t2N0SNqCZiOIIVVTTNSW3cP7IhTo19vJUcfuGV5FJvev8IyBtIp7VQC9e36V+d+/PsMuugcTIzdm+wsWu0scIU5hrctxoQcsj88AS7mvDcrJi28GnnjUfWYoZVFmQ23zFwz6aOW/Urh/Rv9VuirOBbaJSm0odetC619tf3SC396+oDU/BT0Z1u9LKQbJe2eZN8txjEZTmNpTAJCyx9N3a2wQu4UffI6ucPxdnKYQBkfp+aUiSLI3WJvgHO9j/ZTgXntKA8UmwGiuA/1Hb4m6AiE7PWKWWRFfv1mBsAqg1ZQR+RWmPbWCrIFgC7PbzfBGiFqD/Gl7GaIc346Dlbe3NeqgRoESajo5GAxMxrDAkkvf3KlADJnGuoeglEWVzYltvgucqt/J501hLrRBn/zL06aHbeJT6p8mqM0X9jld4GT9iP2R0KLKbxfA+ie+woh/DKuP+2uwfo1pWP+LQbIIBuWoWG/enGIq2Ej0dIxinKymIuDdYdGG2MPrMwaV0TVaIuNrdDoB7ExSbCpQgX49vp3KywY9Yj4fWR9RAbRwllsQh9Q0DEOdBuiIcIAi1jqU84yiBJZ3qIz+6sqE1pn4rP8eCnsxZwVLrfJbEMJ8wHA64qtREQwkkEmnzXw2pPKTUMqiwqZlm+8qdP2KFM7bijVU/XXpwwyrTdTqR9HmL/Q5XaVOv1b9UZnflk+mccAx8PdtvgzW79Morf840qun5G1e921Ae3WL/LP7RmvJEjES71jJshyF+6HY+PdqcPdT7QRyXxQfYrx+8fLqnqJYrFsYeKO3QgN1HXWO0q9iCyXQQUJv17p1xWiW50lq5GsXrGNV6UhSWUZFu/7QxbeTabqHoJRFnQ2tzRuGpF/teSUa4IlOe6K3icHoR9KGUrcus/7JczB/pZs4l+i3FYQyQ7qo398hvArDEdbvVJrUf1qQbBIQld9ZhN0uwNILO43DNDazkL3YzELY3k3KRicCTmOr1g4spEmwyYNcfb0sE4tvi33Fa1LtJNophpyCSse5TwulgftjIiUaWKjAPJxmVwk2UqfM/MW8Td05lkVwwe/adEwwYJfpcesDnXRytbof20CzsiCWF8UvaIajH0I4L/ctua/WfirXplmbGJJ+9doglLp1qfXPwe+PiH5boPvPqvQFndTvi1F1ygTJpo7pgwbW73QI9d9ADJIFKiHpUOQmArxiqflBMqIL0g38ZJAtGpOdnrM2sEE4MunUtW0U+46ozsY0+OKmg1RtI6DaKVQlDjlGUwiVAa+rQVSugcF3St2nrJGagVausZd3dLi68ip9Ym8wIqhMx5RDyVbnYLpAV51cXfmptiT26x2UsmhQXhS/IBiMfhpKu8kH3HqTnYE+2rRNDEu/Gm00n9HnGIZW/2zC/RHNbwfjhQBd1e/LKGufjlasXzvq/ajim/gHjc7KfjWB8eIG0mwNzruBzAD48+cPfP/+XX9imsL6tYP1awfr1w7Wrx2sXztYv3Y0/DGRr2E0f4IkfofbsVpVQ7y0xjAMwzAMwzDnohNBMobJMF+/weGQQZamsDx5UWGGYRiGYRiGaU9HgmTDCEbTKU+5YBiGYRiGYc5Kx4JkhmEYhmEYhjk/38Sbj/pvhmEYhmEYhmGQTqxuwQwb8XbtP//+oz/5HP7DVbAKfju5HaxfO1i/drB+7WD92sH6tYOnWzBnhQNkhmEYhmG6CAfJzNngAJlhGIZhmK7CQTJzFjhAZhiGYRimy3CQzPx1OEBmGIZhGKbrcJDM/FU4QGYYhmEYpg/Qg+T9Cibf1M9G25v9E9LbGe6brMD+Uen9aoJ2E3B/aXq/ncFkYqU1mcBsW/Jz1HjtmWU7mW0L15DU2Kj7OB6X22QGK+ea9XZ7WInrYPouMv9o7x/awgz3uz+33UgDib62o3FfcANkmX+Td6wjft73qKlVHiX61KeDNquizWQVqENMIyi6h6CUBam8KH6hw5ysH6XdoB8r6BfQpu9t4jT9aNqQ6taF1r8jZf1Rjd/G6+bHApvbT14ibtucBTRpX36XDVk/sQQciTTGCCc+pFl2yOxNHxakMRwgSo77suQQ4SWixLbSdhAd4iTN00mTWNpCnGorjbwupoH7pW2q0izYEWyyJHLuPz0kkboP+/YodrmN+qjJtJ2fX3V/xeuENRDpFu/bRl0Xj9sa9wCxFreHqRu6zNJY5e2YdaMn6pYW9SnIU5vOUbdIa23qmldOHSWo37kh6B6CUhak8qL4Bc2Q9KOcl/sW3W4y1MrVpkmbGJJ+FG3QSGmj0z61zzEMqv5ZhPsjgt8W+9LU33QddO+hk/p9IUpXv44W2maD8rs0/Ug00K9ZkFwTnBWDZN1Y3Ktq5xK6Gf+YTsO9rrQzQSfFRmgiRHAD2/QQC6Gsykeyc9KWSNGxYguxnXvx0qzQwDSQQtoSfQ+Rn37XCTXSYl0ROPWlRCP3vNp0vM+KcDl3ky46uXrdQ1DKooGN2w5C7RIZjn6U83yfJmiu8ZHh6NdAm8q6RbE5MqT6d6SkPyL67RCyHAI2XdTv66hom5Y2TcrvsvSj0UQ/cpBcVoFt7AuH7UucS45zXEf7le2WYoMUHaEmcC7NLuBshXMQ9y2dhH2+K36dBukhiWM5CreR2mIalHLoGn4jJXRWno4aPRhRp1I6PWXj1o9gOXeU7jk5iu4hKGVBsCG2ecPQ9Gt+nrbJ/QalHI4MR78wBW0odeti69+R0v6I5LdDhO9J0D39vpJwsFbUuVn5XZZ+FJrp1/DFvQ94teYalc7B2q/g5wIgeZrDSO9SZPCxw//dXDn7DSO4u0f3s/tASyT7gB1EcD2WB8NQbGz2e/xPbFuY4U3uogQepvqYTaXdGK7lbcq7lGxfNipf0x8QwwZe8nnJKs9RfoN1Gkxhvl7DfGodRT0fNxEkwRsdDqOrG/z3HX7nlcr+22YHlvQexXSmsMbB4NqRLpOFwHwmfvm5UMqCYNO0zfeEev3CVJ0nfdh2Jv1xvDT+eJhtoql+QW2+os/pCWT9avujsjTK/fZ+9Yi9ZgzLebhXvBxGMF9iCLe5lfOQj3V0Z7XfMKf6D0ZRpl+zIHm3gefrJWRZBhkOJUVBjjFQLvIBv9Dr3KRv4NX3/W+8BTtgLMO+0Ru4Ei++TewXAWZQnGNNsRFs4HY8hrHcbmGziyC+v9LHbOrsdDD//lsPEvbwGzMW/xBOQwXQ7yYDMs8R3N9pMcgaGPawEl48efL17Ctag5urigzJwcYOFj9nsNIDlq14mWGMAxZtQkonhHTyWAbJA4YLTGNO1T0EpSyCNtQ230FOrrcNz8POVfqwWxQvWYYfBhj61CY+o/5VavOZfU4HaaVfTX9E8dseW/iFQSD7Y830AdIkgs1CxyCyjqbHOvqZ/vcSaagfPUi+W0KaZvA2n8JoNILRdA1PWJCwecEqbnMN1xiQbx4/awUGEbA+Atzr4DxL5ZPa2zE6JG1BsxHEkKopJmrL7uF9EQr06+3kqGP3DK8ik/tXeMZAWsW9KoDePb/K/O9fn2EX3YOJkRuz/QWL3SWOsKew1uW40AOWx2eApdzXBuXkxTcDTxf/1OLcUMqizIba5i8Y9NHKf6Vw/4z+q3RVnAtsE5XaUOrWhda/2v7oBL+9fUFrfops2M7GcLu4gTQz8Yeuo16cwvwNikHy3lnmzXIco9EUpvYUAKTs8fTdGhvEbuEX6ugKx9/FaQphcJSeXyqCJHuDtQnO8T7WTwnutac0UGwCjOY60H/0lqgrELLTI2aZFfH1mxUIqwBaTRmRX2HaUyvIGgi2MMNR5OBG2FqD/Gl7GaIc37SjwO3tbY06qFGghJpODgYDkzEssOTSt+qvrpgKGuseglIWVTYntvkucKp+J583hbnQBn3yL0+bHraJT6l/mqA2X9jndIGT9SP2R0KLKr9dAOuf+Aoj/jGsPu5U9Dc6cYqamcZo6qiJPz6z/l8iDfUrBskiGJSjYr15c4qpYCPR0zGKcbKaioB3h00jxB5enzGojK7REhlfo9MJYGeSYlOBCvTr8e1UXjboEfP5yPqICqCFs9yCOKSmYRjqNEBHhAMUsVaknKcVJbC8Q2X0V1cmtM7EZ/33UNiLOStYapXfghDmA4bTEV+NimAggUw6beazIZWfhFIWFTYt23xXoetXpHDeVqxB669LH2ZYbaJWP4o2f6HP6Sp1+rXqj8r8tnwyjQOOgb9vQ6ayf6t+F+dU/8EoSvXDkV49JW/zum8D2qtb5J/dN1pLloiReMfCb3oW74di49+rwd1PtRPIfVF8iPH6xcure4pisb5h4I3eCg3UddQ5Sr+KLZRABwm9XevWFaNZniepka9dsI5VpSNJZRkV7fpDF99OpukeglIWdTa0Nm8Ykn6155VogCc67YneJgajH0kbSt26zPonz8H8lW7iXKLfVhDKDOmifl8Gsf02Kb+L0o9IE/1oQbJJQBRSxQLXpRd2GodpbGYhe7GZhcS9m5SVQwScxjaRy3cU0iTY5EGuvl6WicXLxb7iNal2El2hQ05BpePcp4XSwP0xkRINLFRgHk6zqwQbqVNm/mLepu4cyyK44HdtOiYYsMv0uPWBTjq5Wt2PbaBZWRDLi+IXNMPRDyGcl/uW3FdrP5Vr06xNDEm/em0QSt261Prn4PdHRL8t0P1nVfqCTur3hfh1VMcFFfWvVGPk0vQj0UA/YpAsUAnJwpKbCPCK7kAWruskTCDpXF0WvGhMdnpYKUIIRyaduraNYt8R1dmYBl/cRB5QJG0joNopsLMRxwOO0RRCZcDrahCVa2DwnVL3KWukeeOXWyjv6HB15VX6xN5gRFCZjimHkq2ieDpDV51cXfmptiT26x2UsmhQXhS/IBiMfhpKu8kH3HqTnYE+2rRNDEu/Gm00n9HnGIZW/2zC/RHNbwfjhQBd1e/r8GOtcB2t8wOKy9OPBlW/b+IfNDor+9UExvJtzvVxsjozGP78+QPfv3/Xn5imsH7tYP3awfq1g/VrB+vXDtavHQ1/TORrGM2fIInf4XasVtUQL60xDMMwDMMwzLnoRJCMYTLM129wOGSQpSksT15UmGEYhmEYhmHa05Eg2TCC0XTKUy4YhmEYhmGYs9KxIJlhGIZhGIZhzs838eaj/pthGIZhGIZhGKQTq1sww0a8XfvPv//oTz6H/3AVrILfTm4H69cO1q8drF87WL92sH7t4OkWzFnhAJlhGIZhmC7CQTJzNjhAZhiGYRimq3CQzJwFDpAZhmEYhukyHCQzfx0OkBmGYRiG6TocJDN/FQ6QGYZhGIbpA/Qgeb+CyTf1s9H2Zv+E9HaG+yYrsH9Uer+aoN0E3F+a3m9nMJlYaU0mMNuW/Bw1Xntm2U5m28I1JDU26j6Ox+U2mcHKuWa93R5W4jqYvovMP9r7h7Yww/3uz2030kCir+1o3BfcAFnm3+Qd64if9z1qapVHiT716aDNqmgzWQXqENMIiu4+WKbYxgpl4bVnik3/y/Q0/Qxhn6KgtZsj/fQr7fQTlOfbrVuzoM6CqnLoNqfqV69Nk/rXX/2+Ekr9a1//Lxty/yGWgCORxhjhxIc0yw6ZvenDgjSGA0TJcV+WHCK8RJTYVtoOokOcpHk6aRJLW4hTbaWR18U0cL+0TVWaBTuCTZZEzv2nhyRS92HfHsUut1EfNZm28/Or7q94nbAGIt3ifduo6+JxW+MeINbi9jB1Q5dZGqu8HbNu9ETd0qI+BXlq0znqFmmtTV3zyqmjBPU7NwTdQ+T1Xpdphm3DbasUmyZlOiT9BLl/C+aX2G4s6vzK0PQzlOVb7ffrn6t1dTkcGZJ+9drQ61+v9ftCSPWvQfldmn4UTNun9B/NguSa4KwYJOvG4paaSKekMP1jOg33utLOBJ0UGyOKG9imh9gRhmTnpC2RlRYrtqisQadrpVmhgWkghbQl+h4iP/2uE2qkxboicOpLiUbuebXpeJ8V4XLuJl10cvW6h/Dbm6BYFhSbZmU6HP1MHtHPJElQJ2q7OVLvV4ak35GyfFfULcuuthwshqMfQRti/eu7fl8Hrf41Kb/L0o9ChcaB/oM83WL/+13/RWO/+gkLSCBbT/UewR5WjxtsGwk82LsN0wfAm4fNo/76a/8Kzzu87eUcRtJAM11jcP8Gc7GTYlPG/jeIXN1cVRkhrt30B8Swg+dX6+F89gG76B4eftwA7D4g07tFnl/lDf4AleVqDUbzJSQxppEVH/xvZ7ewiVN4utc7es0WXoQE93dWmY3g7l4U/gseNcTww9Fo+pBAtHsGJT0lnQw+pPyhCsecBrX8XKawxoH5W6hRRtcwln9QbPpepqfqh1Z3T5ChX1vPr/SeEHXt5kg//crp+hna5ptWDl2lvX7V1Ne/fut3br66/IZOs/6j4Yt7H/BqzTUKzg0W7FfwcwGQPDmBq745jDad/QZd0CbIFIEnRHCtesYwFBub/R7/E9sWZniTu7KAvdJuDNfyNo+h8FbUWpEvGUBv4CWvqSrPUX6DdRpMYb5ew3xqHUU9HzcRJMEbHQ6jKxwc4HDkd16p7L9tdmBJ71FMRwVdhbEakslCYD4Tv/yqke1rO5O+whvkasI2wyxTkn6jUYnfsCG2m4H5FXL9q8z3CObLGIONWzkP9Fj/dsU6SiqHflGvH1EbSv0boH6fA1Vjn6b+93Jp1n80C5J3G3i+XkKWZZClqiDH3ltqH/ALe7SbNPAUVz+RPQaMZdgFfQNXODaaTewXAWZQnKNOsRFs4HY8hrHcbmGziyC+D41k6+x0MP/+Ww8S9iAetKuRiQqg300GZJ4juL/TYpA1MOxhJSKE5Kn6qXifoDzB10/rFz9nsBKOAretmGg/xgGLNiGlE0J2klgGyQM2F6Yxp+pug45ftq9bLIhkGR6oUmwMfSrTz9CvDEq7kfTYr7TSj5Dv6QOkSQSbhe4DZP1Lq+tfn2ijX5025PrHlFKn8Vf6j0ulov+gB8l3S0jTDN7mUxwE4ihwuoYnOTfCfbx/Ddc4oMmnTLRGBKyPAPc6OM9S+aT2doxBsLag2QhiSHEEcTBbdg/vi1CgX28nR23m6yM55cM8zVYB9O75VeZ///osp2GYGLkx21+w2MWwHEyETAVHe7ocF8JR4Pb4DLCU+9qgOknxzcDTxWnaIeR0KNG2Urh/xrYVWlmBYiPhMj1CbDeX6lcI+d7OxnC7uIE0M/5f1z+vn7g86rX5Kr99OXD9+9tU9x/FIBmj6eOSGOJp7LFTGo2mMLWnACBlj/fv1tggdgu/UEdXIM6wpymEuYHjICmCJBNzl3Rwjvexfkpwrz2lgWITYDTXgf6jt0RdgZCdHjHLrOj5yCYQVgG0mjIiH+HbUyvIGgi2MMNR5OCeeGoN8qftZYhyfNOOAre3tzXqoEbREmo6OdgYJmNYYMmlb9VfXTEVNNa9AizjuWir6C9+lbXVSpseluln6heirt303a+crB8h3/qJUpyiZqYymfpX10/0hVP1o2pTW/+YUigaf7X/uCjq+49ikCyCQfkkVm/enGIq2Ej0dIxinKymImDp5sF3Ef2Sm3lBZ3yNgW4Au5JQbCpQgX49vp3Kywaj8Hw+sj6iAmgRoKsJ9sUJ4nUaoCPHAYpYN3K/eoQNjm6Wd6iM/urKhNaZ+Kz/Hgrq5VB7gBSAMAc9nI6YjiMaQwKZdNrMZ1NbftsZDr79NdMLUGxyhlWmpPp/Kla7GapfqdOPlO9K/1L9LkTfqa1/bbQh+G0GaaHxl/qPQULsP3CkV49ek89dXcRdMsNdlkR+dpczq1j+zD9WsqxJ4X4oNv69Gtz9VDuB3BfFhxivX7y8uqcoFmvvBZZzq9BAXUedo/Sr2EIJdJDQEjRuXTGa5XmSGvnaBetY7VI4qSyjol1/GMwSUiV+pFDWFBsJvUyHswSXTXipPF8nhX09+bfxIaHNuYeh6EfKN7n+GUrKweKi2i+h/hXpp35fBrH+NSm/i9KPDL3/oAXJpgBEIVUscF1acM6NGGdlFnIWG/nHRLASiUZVSJNgkwe5+nriR0LMIuf2Nal2El2hQ05BpePcp4XSQKwTSdDAQgXm4TS7SrCROmXmL4Zu6s6xLIILptemYxqDXabHrQ900snV6n5sA/a+vN7nfkS3IatO19s0K9Mh6SdQ+TTBhfEf+iC13ThU+ZWh6WcTyrdf/7Rfduyqy+HIsNuvqw29/vVavy+EVP8I5We4NP3qadZ/EINkgSoIWVhyw0J0IkNZuK6jNYGkU3qy4MWN2ulhpQghOkmZKW0bxc41kDob0+CLm8gDVjJtI6DaKVQD9/Is0JW4MuB1NYjKNTCEnHrXKWukeeOXWyjv6HB141f6xIEnOTXpmHIo2SqKpzN01cnVlZ9qS2K/3iFBP2IGg3qTjl4fVdTYNCzTQelXlveCT6C1G5sqvzKs+lcknG+/r/PqKKkcFINrv3Xa4Kfa+jcA/b4Oisb15We4PP1qKKt7enP9xTfxDx44K/vVBMbybc71cbI6Mxj+/PkD379/15+YprB+7WD92sH6tYP1awfr1w7Wrx0Nf0zkaxjNnyCJ3+F2rFbVEC+tMQzDMAzDMMy56ESQjGEyzNdvcDhkkKUpLE9eVJhhGIZhGIZh2tORINkgfqRkylMuGIZhGIZhmLPSsSCZYRiGYRiGYc7PN/Hmo/6bYRiGYRiGYRikE6tbMMNGvF37z7//6E8+h/9wFayC305uB+vXDtavHaxfO1i/drB+7eDpFsxZ4QCZYRiGYZguwkEyczY4QGYYhmEYpqtwkMycBQ6QGYZhGIbpMhwkM38dDpAZhmEYhuk6HCQzfxUOkBmGYRiG6QP0IHm/gsk39bPR9mb/hPR2hvsmK7B/VHq/mqDdBNxfmt5vZzCZWGlNJjDblvwcNV57ZtlOZtvCNSQ1Nuo+jsflNpnByrlmvd0eVuI6mL6LzD/a+4e2MMP97s9tN9JAoq/taNwX3ABZ5t/kHeuIn/c9amqVR4k+9emgzapoM1kF6hDTCIruPlim2MYKZeG1Z4pN/8v0NP0MYZ+ioLWbI/30K+30E5Tn261bs6DOgqpy6Dan6levTZP611/9zkvTNs64kPsPsQQciTTGCCc+pFl2yOxNHxakMRwgSo77suQQ4SWixLbSdhAd4iTN00mTWNpCnGorjbwupoH7pW2q0izYEWyyJHLuPz0kkboP+/YodrmN+qjJtJ2fX3V/xeuENRDpFu/bRl0Xj9sa9wCxFreHqRu6zNJY5e2YdaMn6pYW9SnIU5vOUbdIa23qmldOHSWo37kh6B4ir/e6TDNsG25bpdg0KdMh6SfI/Vswv8R2Y1HnV4amn6Es32q/X/9cravL4ciQ9KvXhl7/eq3fWWnWxlk/nyb9R7MguSY4KwbJuiDdUhPplBSmf0yn4V5X2pmgk2JjRHED2/QQO8KQ7Jy0JdLpoPMQzibodK00KzQwTqiQtkTfQ+Sn33VCjbRYVwROfSnRyD2vNh3vsyJczt2ki06uXvcQfnsTFMuCYtOsTIejn8kj+pkkCepEbTdH6v3KkPQ7Upbvirpl2dWWg8Vw9CNoQ6x/fdfvrDRs46yfS0U9DvQf5OkW+9/v+i8a+9VPWEAC2Xqq9wj2sHrcYNtI4MHebZg+AN48bB7111/7V3je4W0v5zCSBprpGoP7N5iLnRSbMva/QeTq5qrKCHHtpj8ghh08v1oP57MP2EX38PDjBmD3AZneLfL8Km/wB6gsV2swmi8hiTGNrPjgfzu7hU2cwtO93tFrtvAiJLi/s8psBHf3ovBf8Kghhh+ORtOHBKLdMyjpKelk8CHlD1U45jSo5ecyhTUOzN9CjTK6hrH8g2LT9zI9VT+0unuCDP3aen6l94SoazdH+ulXTtfP0DbftHLoKu31q6a+/vVbvy5Ab+OMS7P+o+GLex/was2DCc4NFuxX8HMBkDw5gau+OYw2nf0G3VBNkCkCT4jgWvWMYSg2Nvs9/ie2LczwJndlAXul3Riu5W0eQ+Gt8DoiXzKA3sBL7mlUnqP8Bus0mMJ8vYb51DqKej5uIkiCNzocRlc4OMDhyO+8Utl/2+zAkt6jmI4KugpjNSSThcB8Jn75VSPb13YmfYU3yNWEbYZZpiT9RqMSv2FDbDcD8yvk+leZ7xHMlzEGi7dyru2x/u2KdZRUDv2iXj+iNpT6N0D9/i7ENs4EaNZ/NAuSdxt4vl5ClmWQpaqxjL231D7gF/ZoN2ngKa5+InsMGMuwK8ANXOHYdjaxJ6nPoDhHnWIj2MDteAxjud3CZhdBfB8aydbZ6WD+/bceJOxBPGhXIxMVQL+bDMg8R3B/p8Uga2DYw0pECMlT9VPxPkF5gq+f1i9+zmAlByviZa4ZTMY4YNEmpHRCyE4SyyB5wObCNOZU3W2wc5Xt6xYLIlmGB6oUG0OfyvQz9CuD0m4kPfYrrfQj5Hv6AGkSwWah+wBZ/9Lq+tcn2uhXpw25/jEnwxp/PhX9Bz1IvltCmmbwNp/iIBBHgdM1PMm5Ee7XM9dwjQPSfMpEa0TA+ghwr4PzLJVPam/HGARrC5qNIIYURxAHs2X38L4IBfr1dnLUbb7akFM+zNNsFUDvnl9l/vevz3IahomRG7P9BYtdDMvBRMhUcLSny3EhBytjeHwGWMp9bVCdpPhm4OniNO0QcjqUaFsp3D9j2wqtrECxkXCZHiG2m0v1K4R8b2djuF3cQJoZ/6/rn9dPXB712nyV32aOsMafS3X/UQySMZo+LokhnsYeO6XRaApTewoAUvb1zN0aC2u38J3K6ArEGfY0hTA3cBzkRpBkYu6SDs7xPtZPCe61pzRQbAKM5jrQf/SWqCsQstOjOZkVPR/ZBMIqgFZTRuQjfHtqBVkDwRZmOFIf3BNPrUH+tL0MUY5v2hnj9va2Rh3UUxAJNZ0cbAyTMSyw5NK38Nf7DIHGuleAZTwXbRX9xa+ytlpp08My/Uz9QtS1m777lZP1I+RbP1GKU9TMVCZT/+r6ib5wqn5UbWrrH9Ma1viTqO8/ikGyCAblk1i9eXOKqWAB6ukYxThZTUXA1pkH30X0S27mBZ3xNQa6AexGTrGpQAX69fh2Ki8bjMLz+cj6iAqgRYCuXpAoThCv0wAdOQ5QxLqR+9UjbHB0s7xDZfTXKia0zsRn/fdQUC+H2gOkAIQ56OF0xHQc0RgSyKRDYT6b2vLbznDw7a+ZXoBikzOsMiXV/1Ox2s1Q/UqdfqR8V/qXYc/3rK1/bbQh+G2mJaxxQ4j9B45C6tFrKrpLjrhLZrhLkMjP7nJmFcuf+cdKlqUp3A/Fxr9Xg7ufaieQ+6L4EOP1i5dX9xTFYu29wHJuFRqo66hzlH4VWyiBDhJagsatK0azPE9SI1+7YB2rSkeSyjIq2vWHwSwhVeJHCmVNsZHQy3Q4S3DZhJfK83VS2NeTfxsfEtqcexiKfqR8k+ufoaQcLC6q/RLqX5F+6ndWGmrM+oWg9x+0INk0IFEwpYuIhwpJn+fciHFWZiFnsZF/TAQbqmhUhTQJNnmQq68nfiTELMBtX5NqJ9FOI1RhVTrOfVooDcQ6kQQNLFRgHk6zqwQbqVNm/mL2pu4cyyK44H1tOqYx2GV63PpAJ51cre7HNmDvy+t97kd0G7LqdL1NszIdkn4ClU8TXBj/oQ9S241DlV8Zmn42oXz79U/7ZceuuhyODLv9utrQ61+v9Tsrzdo46+fSrP8gBskCVRCyQchNBHjFBGUDch2tCSSd0pONS9yonR42vBCik5SZ0rZR7DvzOhvT4IubyAM2Tm0joNopVAMPdi7aCVUGvK4GUbkGhpBT7zpljTR3sHIL5R2dgW78Sp848CSnJh1TDiVbRfF0hq46ubryU21J7Nc7JOhHzGBQb7Kj1kcVNTYNy3RQ+pXlveATaO3GpsqvDKv+FQnn2+/rvDpKKgfF4NpvnTb4qbb+DUC/80Jv46yfQ1nd05vrL76Jf/DAWdmvJjCWb8yujy8EMIPhz58/8P37d/2JaQrr1w7Wrx2sXztYv3awfu1g/drR8MdEvobR/AmS+B1ux2pVDfHSGsMwDMMwDMOci04EyRgmw3z9BodDBlmawvLkRYUZhmEYhmEYpj0dCZIN4kdKpjzlgmEYhmEYhjkrHQuSGYZhGIZhGOb8fBNvPuq/GYZhGIZhGIZBOrG6BTNsxNu1//z7j/7kc/gPV8Eq+O3kdrB+7WD92sH6tYP1awfr1w6ebsGcFQ6QGYZhGIbpIhwkM2eDA2SGYRiGYboKB8nMWeAAmWEYhmGYLsNBMvPX4QCZYRiGYZiuw0Ey81fhAJlhGIZhmD5AD5L3K5h8Uz8bbW/2T0hvZ7hvsgL7R6X3qwnaTcD9pen9dgaTiZXWZAKzbcnPUeO1Z5btZLYtXENSY6Pu43hcbpMZrJxr1tvtYSWug+m7yPyjvX9oCzPc7/7cdiMNJPrajsZ9wQ2QZf5N3rGO+Hnfo6ZWeZToU58O2qyKNpNVoA4xjaDo7kHwI4LatInpdJmT9MsJ+xQD61dBXX9C0gZ9E/YV9vWD/VLPaawx2tuauZutoeuTZz2qe+eH1jcyZTRov2IJOBJpjBFOfEiz7JDZmz4sSGM4QJQc92XJIcJLRIltpe0gOsRJmqeTJrG0hTjVVhp5XUwD90vbVKVZsCPYZEnk3H96SCJ1H/btUexyG/VRk2k7P7/q/orXCWsg0i3et426Lh63Ne4BYi1uD1M3dJmlscrbMetGT9QtLepTkKc2naNukdba1DWvnDpKUL9zQ9A9CMGPkNKmpKMZlH5I7t/E+aE6zPqVQ+grKNrk/lv7pgzP8dLRdFI/CqdoLOzS1N+0zzXnKp/s6xeqz73V78sg9o0a1s+nSfttFiTXBGfFIFkXpHtR6YBKGpp3TKfhXlfamaCTYmMapRvYpofYaZgkOydtiXQoKLpwJM69eGlWaGCcRyFtib6HyE+/64QaabGuCJz6UqKRe15tOt5nRbicu0kXnVy97iWIcq2pv6S0CekYhqSf8Q9xkni+y8D6laFt3HxLX2P53Fpt/H5DUOZT+hqknNzGA0ht8rTC6RRtjvRVvy9D1tf6vtHA+rk0a7/k6Rb73+/6Lxr71U9YQALZeqr3CPawetygP0rgwd5tmD4ANh7YPOrpBPtXeN7hbS/nMJIGmukag/s3mIudFJsy9r9B5OrmqsoIce2mPyCGHTy/Wg/nsw/YRffw8OMGYPcBmd4t8vwqb/AHqCxXazCaLyGJMY2s+OB/O7uFTZzC073e0Wu28CIkuL+zymwEd/ei8F/wqCGGH45G04cEot0zKOkp6WTwIeUPVTjmNKjl51PvR2hpN/VH3eJ0/UZ3T5ChX1vPr/QeF9avVD9iX1GvzRTWhwO8hTqX6BrG+s9+c3od9dnCr8XOSYtpR13fyJTTrP02fHHvA16teTClczj2K/i5AEieHGekAxaMNksai26EJsgUgSdEcF3ldSg2Nvs9/ie2LczwJndlAXul3Riu5W0eQ+Gt8CgiXzKA3sBL7kVUnqP8Bus0mMJ8vYb51DqKej5uIkiCNzocRlc4OMDhyO+8Utl/2+zAkt6jmI5qEIWxGpLJQmA+E7/8yiD6EYtw2s3T6TIk/UajkwIN1g9p1FfQtZH9xHYm+zwvAB8Y9DZ+ZL96xB4xhmUelIxgvowx2L6V85CP+u0Gr9/nUVYG1X0j41PXfpsFybsNPF8vIcsyyFJVycfoPIp8wC+82k0aeIqrn8geA8Yy7ApwA1c4Ep1Njg5LvEhXnKNOsRFs4HY8hrHcbmGziyC+Dz2RqbPTwfz7b+049yAePqinlSqAfjcZkHmO4P5Oi0HWwLCHlSi95Kn6qXifoDzB10/rFz9nsNIDlq140WOMAxZtQkonhBx0YBkkD/rpPtOIU3U3VPmRJmmT/FEHaatfFaxfDcS+gqoNdq6yn7hFh5Isww9c+sin1VH9FNn1tdMHSJMINgvdz0r90uHo95VQ+kaGBqH90oPkuyWkaQZv8ymMxNOM6Rqe5NwI96uXa7jGwWY+ZaI1ImB9BLjXDitL5ZPa2zE6Nm1BsxHEkKp52GrL7uF9EXJ+9XZyRG2+2pBf45knFCqA3j2/yvzvX5/lNAwTIzdm+wsWO3sUfilMYa3LcaEHLI/PAEu5rw1q0CG+GXi6OE07ANmP1PBZ6VwqF6sfoa9oog0eU31ECvfP2Ef0dOWhL2P7gur6/dd2NobbxQ2kmeljtX59GKSdna/qGy8QQvstBsnu0jfWCaPRFKb2FACk7KuXuzUW1m7hV/jRFY7jMbas/T4AR/v5pSJIMjEHTzssvI/1U4J77SkNFJsAo7l2fo/eEnUFQnZ6NCezoucjm0BYBdBqyoj8Wt+eWkHWQLCFGY5wBvfEU2uQP20vQ5Tjm3aiuL29rVEH9YRDQk0nBwPkyRgWWHLpG3+tdzKNdT9S60eIaTfxR52jhX61sH411PcVJ2mD58xFOtjv/RpCnPcpdVS/f5O/j6PR3+TFKfpzI7PRr64vZhSi3lb1jUwzKtpvMUgWwaAcXevNm1NMBQtQf0VVjJPVVARseSWjbf2Sm5k8Pb5G5xXAbsAUmwqU86vHt1N52aBnzecj6yMqgBZOV738UHxprE4DDIxxgCLWk5RzuaIElneojP5axYTWmfis/x4K6oUZe4AUgDCvMJyO+IpVBMgJZNKhMJ8NqfxO5CvT7gqsXztq89iyr8jZirWA/bX/L4FG9Uh+Cxp4l6bSh/Oc2pNp+n7WpdK0/eIopB69XqK75Ii7ZAbGxYUlSORndzmzkuVLJN6xkiVnCvdDsfHv1eDup9oJ5L4oPsR4/eLl1T1FsVh7L7CcW4UG6jrqHKVfxRZKoIOElqBx64rRLM+T1MjXLljHqtKRpLKMinb9YTBLcJ3oR7y0iekYBqNfgfAyRgLWr4wSG1sPijYlNnhTQZ/V1yW42tXRCtsL0e/LIPaNBtbPoWH9owXJpsKLBCoW/y5tVE7BSTt5rl7QXS6GXbKYs7xxEXAaW7U+aCFNgk3u5PT1xI+EhH68g2on0WKHhFXpOPdpoTQQ650SNLCQ6Zak2VWCjdQpM3+helN3jmVR/qMIVemYANku0+PWBzrp5Gp1P7aB4z6aH6lPm5iOZjj6KWR+0S+pIFmdj/8dYf0kQf2c8/y+gqZN7r9zG90XBHxzb4OUUzUWlAUiGl8/3fcNSb8vg9g3alg/nybtlxgkC1RByITkJgK8YnLywu5FTCDplJ5sFNIZWenhDYcQGZCBjraNYj8jdTamMRc3kQd0ANpGQLVTqI4qJCyKoc4t8xKIp0FUroFB3l/oeh2mrJHmjlFuobyjM9CNX+kTe4MRQWU6phxKtori6QxddXJ15afaktivd0jq/YiAUjco6QgGpV9ZfXZ8AutXoh9S359QtEEb81AjTyfUR/Q7SDlV42AsUMDXeIj6fR20vlHA+oWgt99v4h80OCv71QTG8k1XayI/Mxj+/PkD379/15+YprB+7WD92sH6tYP1awfr1w7Wrx0Nf0zkaxjNnyCJ3+F2rFbVEC+tMQzDMAzDMMy56ESQjGEyzNdvcDhkkKUpLE9eVJhhGIZhGIZh2gLw/wEyFpSJBAwe9QAAAABJRU5ErkJggg==;" vertex="1" parent="1">
          <mxGeometry x="380" y="480" width="597.28" height="160" as="geometry" />
        </mxCell>
        <mxCell id="Ofylcr-PgnQvNZqJ4ggt-10" value="" style="shape=image;verticalLabelPosition=bottom;labelBackgroundColor=default;verticalAlign=top;aspect=fixed;imageAspect=0;image=data:image/png,iVBORw0KGgoAAAANSUhEUgAAAMAAAAB6CAYAAADpjVwUAAAAAXNSR0IArs4c6QAAAARnQU1BAACxjwv8YQUAAAAJcEhZcwAAEnQAABJ0Ad5mH3gAAA/SSURBVHhe7Z29VttME8eH90bS2Ck4XIG5ApMmFS0dLnGTjpLuaUxpd26paLCvAK4gJ0XkIrkS3pnZWe2HVtZKFjyPrfmdoxMjrfZzRpqVtP+cvSOgHB1///6FL1++yF9KW2z//U/+VpRBog6gDBp1AGXQqAMog0YdQBk0FQfYbWdweXYGZ7xdwmy7kyOO3aOkuXwEc3QH28fL4LzL2VaOWTDN7FKO07npvAmuw6XNK5V2B490HMuI2c7MOdVDW5jh/stHqTHWt8w/2C5BkrQgzNtS9pPke/kY94mPtKns01Mj3Uchh6fJsd8AegxaUizeJ7hrcrt5L4rifXM7oUek7/inx+b9lvYtCkwje24B000wHe3DbXPL+UB5YvG+mJg0C0mzWaTy9vJamDqYtHF+VFU6/xZr42PLwTZg/QKwTly+7C7PlzL8rT2mT/wyTf60T/pS2lCpl2DTw2SBrWjmz58/8uu/T7ExdpUcF6GXNFn2a7D9FzgAG18wAGJQfg6RIaUGnwgMlM+pMXa/vJp0THysUg+EOwCdhxoeGVLsMPHfhxH3QaLfkPoy5fxJtd51HIsDmDbTBW2RtBOirzRZ9ivY/vNCoC08r7CI628wkj2Av75do0+tnvFoHVNYoiO93rmzSibnMJafOPDwfSo/hemPBUzenuCF71IYAjxQBRbwI0rHTH8ANgZWDxIiTL9jjm/wZE42FL/gbXINP75fALz9gkJ2U94vT29Yhe9Y28+ggF9cXF5p29kVrG43sL6WHSfE6NsaivdXWN59lT1V+knTzX4bJ8Gjr2hM8BN+o51xfH2FpaDhzcfpeHW323EcdjNHA7i/8ypj8qjyBr/YUo3RwMVX7xwfaUxp2GM45z+dmW+pB+h8do4VPJetNnlPzp07llB9g032M+G8heY1NNc5O5vtuSAQ5qKwjOy/4AZG7B7hYTWBRdLrT4DRqGY8PfpKk8C33xTOAXa/MRnZT30x02UBGN/jLxywDf5e+waOoOGPx2MYk5Ms7t2VXK7W85sZTjCNoW1pgjie415Byk8aaYBtjDjEz9/ihDv4jRmYq65xjp+21Zz3BK6/xW1bwRXV199unFNvZ2PgplBbiwLW58/wME8YcQ5s6HSD++HdhfCuR1eKxRpSN1ClBRn2m6LlY1DPC8f4Oy5ruqQ5BeBsBa6frmBc3iHwioj76Ko8F0N7eAK4533dYe+2IdTuBZ7eJmD8xzjH29MLl797eeLQqGL/WDpGh6bOdnu1Ti23VDLOKbUVt7slrCkOa40x9DcM79a+pW//gfnbLdyr9f9rOAcYfQW+WdTdK9owmsLdmuL7OfxjYwXct3x1hvb6ukS3MF7LSPl+SJPmAkonlzsLnyLxvzVy4xwmXOLQoza0qqHjFaUKPd4cw5ycrXQuYgszvL2EdwSlMx3tt/EOsKO4wje6GAx7uj07R8hoMTQxV20TtriQJkYmssHE2pyzwmC/jP/liHEOmgeYK3nuhLRf0MjZ+BdQsMM7do8PsMI7wv03/C1hoXX9gv6W38phNNmv5wBT+I7xiA0bDBlPT8bnaMJ2IuvhG3eNk7DRllftEdzdUwW8u4YPhwvxxNrOA57hGdsZGrnMA56fOf5vnFrEtLmiJO8WZPxX6IJk/NFcCeG7ErbVn4NcUQPtvsRLPmUfHe0XwxGHPGvf+yIh8fy9fHlVvgiTFxblM1l5HjtxL57qXlKYvOg57/4XYSXy8iOuE2GeHfv1cJTP5KUMf7PYdtmXd+ULvvJZPu3fyMu36N1I1N5U/jFcpxN7D0CYdtt3JXZc5aDQS5oc+xWSL8IIN8hmUMmoAxIOgGc5I5WNKyFHDegEUiHe0DgS7zIYrgMblU2bqEeJ6ZCk4UiHpByndI7K5rctrDO1ybzBNg7g8qD6mTMYW27NlhoQ4iQdoK4v/Hb2lQZptF/B9p+uCGsJfUM0nl/A5j2M6T8bXRF2GLoiTFEQdQBl0GgIdKRoCHQYGgIpCnJGs2H5rSiDQ0OgI0VDoMPQEEhREHUAZdCoAyiDRh1AGTTqAMqgqTiA6gKpLtDHkO4jZvfo9ZPbwrQ59pNvYyX0GLREdYF4a4/9RNeda78UVV0gbFuTng+PTWIs5LAb1332k29jRPJzaDa+YAAkUz+HyJBSg08EBsrn1Bh74pPXVIUrxyr1QFQX6D+HaTNd0Or1fHgs97U7x35y0njY/vNCINUF6g/VBbLkaP6YZYtNNNkPkZMmpHESrLpALqZUXaAOZOv5/IKXqK9Dc2myHyInTQTfBwiJ/yvhRxBqYGxl/+Y4i1M45DZEG8e+shsP8O3PrAKz8ZlbucNl2vlH6hYp2NupTcJ/l7c3E3aY+pvfZV4SGvlZm7xM+cHm3S7tfKRcElnWOQ5j0mFgQLJ9YT3D9uznmOYAhvo+smNRLnNEO+J+Lo0xw36y0jiqc4AsB0j8ncKuk/UHk9Zy0j6p0ITXy5pKc5kdHCCoS2TkvjGlDMvktW8OkB6w9HnptA6ZE8TGzfV3eaXqWcdJOQDawQYvMj6Vfm6yn9w0QnUOoLpAIaoL9GmM0Dam07CfK5KGTfZD5KSJaJwDqC7QIaCRqy7QxxHYTw0NaTwHUF2gANUF+hzkJVjc3ODCm2M/WTaWAG8VDo5JMXbCgIknEakXYYk5gJ0sqi4Q70QkFvXam8o/5lTnAKbdJhav6vmIbST62c0Xcuwn38aI6iRYcINsKqW6QC6d6gJ1oK4vgnYaYw3srmIcOfaTb2O2/3RFWEtUF+g00BVhioKoAyiDRkOgI0VDoMPQEEhRENUFUgaNhkBHioZAh6EhkKIg6gDKoFEHUAaNOoAyaNQBlEETOUCzvg+vC06tBd42afkY+tDjyS3rkPbQuU6n53AdohSmLxLri61OzklpBDX3R39piDydpcABtrMxXM0BLjYFFAVumwuA1VXjt+lkBOOrn3BxvTHn4ba5voCfV+Ok0QCtjpJ0bltDSlgipk1ZXdtTpU4dYwdW0KCybmD7DCuYwHXth+j17F6e4I1+7FEzOCZ2W3JoWhtRT19pLLvHG14/0gi9BzDY77XD70fL7+bl74rOinzumvzEN3Eszq8Vrcrq2J4S+325HOP8o8/AZR1yjg5RinQaU+5ksZB/qzUjjuVzaNNG+ry5XheorzQOGfs9Oku2/7w7QK6+j09LLZ+DaFtWl/bs4bN0iHYvQKdefL0DXtYcrNA7PnJ0gfpKY2mjs1Q7CeZ1qhhr31T0fXzaavl4yDpYt8n+Wg4oC8lrzz4O1SGqagwl68nhjxF4mpo1qscdBuXoAvWVhmips5R2ADQUXqdKIliL+/QVl5C1sEnBqYBYsGgVrIXl7abhLtG5LCS3PXux64/ton0T/5t1yLL+2BbMdQ3jf56PUPEyH1mfP8NDJUiN7hypu46yB4wS6Aq3yJtPEmkHmC6NtESxgesnnDT2/jQCJ8GUv78lFo73Rk/tMVIrckXmUMUutjfOYcMVvooHC7FFdpIGZopXMrqa3S1hTTGbj4Q/bnG/3HWOPAz6NFg44Rbuc60fqQ2BmJS+j08XLZ8mYqlsa6x9lNXUnia66hBlagyZ8IecyoWFJqw7jadBH8u2k86ScwAME9o8izeYK1Q7LZ8GRnewlsebvK3tnaFlWZ3akyCYc5g6fIwOkdQfXWDuh4YcJmkY1ERXnSXnADn6PhW6aPk0wyFCucnOtmVltmdsYozqFVbCkXDOYecBLXWIcjSGbHmLIgwN3wt+uqVh0H466yxhJ5c06/tImujZqjmPns02a/mUz74lnb/l0KasnPZgKn5mTOkWG8kT0xmNycRz/I46RLYudRpD9jl36vF26tjRyKIgZpzse5lYF8jQVxof7reG9wCBA+Apjfo+KQcgcrV8SiOpbOnBT1EpC89N6wbl6BUhJG7l68lwugU6qRwPEIdJday8jEsKeGHqWGPI9AU5QPTSLUaczs/2aBzA9km8+W3tK01EjgMc/YqwUqenWEKkr3rS6IqwwziZFWGjuzUsbn9inCcvmA6e9SpD4ugdgCfHy1eeLBabDdx3+PhMGS4n4ACWEYym00GFQcrhnJADKEp7VBdIGTSqC3Sk6FOgw1BdIEVB1AGUQaMOoAwadQBl0KgDKIMmcgDVBXL4ujLyO/FJreoC5bKvP5rHqeyTaAvyy0kTETiA6gLVIesAVBeoE016PlnjxOs4qnaz9o0mJ00MvQcw2O+sw49H3Se7hsrn0PKZavIL4MSxOL9WtCqrY3tKVBeoD0wbsY9q9Xzyxon7v+bT5pKcNILtP+8OoLpAe1FdoE406/nkjZP5n+P3k5MmpnYSnKejo7pAXB/VBaqHlrXKzxz2j9MveIn6sNo1OWkcaQfACmTp6KgukKwLlvXAqgt0GE3j9LaCp/N7E9tj7Jqcz+Wk8Ug7gOoCJVFdoA9m3zh9u4cNXjxe76am/zAt95//YCInTURtCMSoLlCI6gJ9DolxGuG+abTYg/vcu+PnpIlxDoC3n/Y6OuYKla3Vk4PqAg1LF6ivceqIcwDVBQpRXaDPIWecJCqIQ3nz1Efu+DlpUmAnl/AzcZEYwasvhmKqCxTmiKguUGvMONnn/Xbc5CDSPE7yTibRf+79QU4ah+2/wAEoE9UFsulUF6gXbJ/EW9DWnHHCNNh/Lg2OecVgctIYbP+pLtCRoivCDkN1gRQFOXoH4Mmx6gIpHTkBB7DQiw/VBVLacUIOoCjtUV0gZdCoLtCRok+BDkN1gRQFUQdQBo06gDJo1AGUQaMOoAyayAFUF8ihukD98gm6QJSPtx643i4cgQOoLlAdsg5AdYE68Tm6QHSRwnxoObHks7mmbMaJi5MHvQcwdNTRkc9dk18AJ47F+bWiVVkd21MSfaLM+UefbKsuUCOmjfRZ8gfrAtXYRt342v7z7gCqC7QX1QXqxGfqAmGHs5yMz/QHrS2uv5PWToLzdHRUF4jro7pA9dCyVvmZw/5xatL8qVv8nlhyKaQdACuQpaOjukCyLljWA9uCVReoG03jtE/zR/pqfjODR7mobh9ncDme49560g6gukBJVBfogzlIFwhDKTyP7sRWVePhCeCe99VTGwIxqgsUIlcZroLE/6oL9AF01AWi85av7qL6+rpEtzB9X4dzALz9tNdnMVeobK2eHFQXSHWB+iSSwYlxDqC6QCGqC/Q59KULVONIfKEKwtEI7OQSfmZKz2xLXZWqjk7quao5j57lbsx5uKkuUIiti+oC2XGTg0jzOOVo/tj3Ns62SCKFxiP13sj2X+AAlInqAtl0qgvUC7ZP4i1oa844GYN2aXDMKwYT9jE5Q51N2f5TXaAjRVeEHYbqAikKcvQOwJNj1QVSOnICDmChlyOqC6S044QcQFHao7pAyqBRXaAjRZ8CHYbqAikKAPwftZxR7ZDGJngAAAAASUVORK5CYII=;" vertex="1" parent="1">
          <mxGeometry x="380" y="680" width="157.38" height="100" as="geometry" />
        </mxCell>
        <mxCell id="Ofylcr-PgnQvNZqJ4ggt-11" value="" style="endArrow=classic;html=1;rounded=0;exitX=0;exitY=0.5;exitDx=0;exitDy=0;entryX=0;entryY=0.5;entryDx=0;entryDy=0;" edge="1" parent="1" source="Ofylcr-PgnQvNZqJ4ggt-7" target="Ofylcr-PgnQvNZqJ4ggt-10">
          <mxGeometry width="50" height="50" relative="1" as="geometry">
            <mxPoint x="600" y="460" as="sourcePoint" />
            <mxPoint x="280" y="700" as="targetPoint" />
            <Array as="points">
              <mxPoint x="280" y="280" />
              <mxPoint x="280" y="730" />
            </Array>
          </mxGeometry>
        </mxCell>
        <mxCell id="Ofylcr-PgnQvNZqJ4ggt-12" value="" style="endArrow=classic;html=1;rounded=0;exitX=0;exitY=0.5;exitDx=0;exitDy=0;entryX=0;entryY=0.5;entryDx=0;entryDy=0;" edge="1" parent="1" source="Ofylcr-PgnQvNZqJ4ggt-5" target="Ofylcr-PgnQvNZqJ4ggt-9">
          <mxGeometry width="50" height="50" relative="1" as="geometry">
            <mxPoint x="410" y="290" as="sourcePoint" />
            <mxPoint x="390" y="740" as="targetPoint" />
            <Array as="points">
              <mxPoint x="320" y="325" />
              <mxPoint x="320" y="560" />
            </Array>
          </mxGeometry>
        </mxCell>
      </root>
    </mxGraphModel>
  </diagram>
</mxfile>
